<?xml version="1.0" encoding="iso-8859-1"?>
<!-- Uploaded to: SVG Repo, www.svgrepo.com, Generator: SVG Repo Mixer Tools -->
<svg version="1.1" id="Layer_1" xmlns="http://www.w3.org/2000/svg" xmlns:xlink="http://www.w3.org/1999/xlink" 
	 viewBox="0 0 512 512" xml:space="preserve">
<path style="fill:#E7ECED;" d="M199.122,446.604h113.79c0,31.454-25.44,56.895-56.895,56.895S199.122,478.058,199.122,446.604z"/>
<g>
	<path style="fill:#7E8488;" d="M256.017,7.7c17.963,0,32.512,14.549,32.512,32.512s-14.549,32.512-32.512,32.512
		s-32.512-14.549-32.512-32.512C223.507,22.249,238.055,7.7,256.017,7.7z"/>
	<polygon style="fill:#7E8488;" points="459.214,405.964 459.214,446.604 312.912,446.604 199.122,446.604 52.822,446.604 
		52.822,405.964 	"/>
</g>
<path style="fill:#FFD311;" d="M459.214,365.325v40.64H52.822v-40.64h41.127c-0.325-2.682-0.487-219.452-0.487-219.452
	c0-40.395,32.755-73.15,73.15-73.15h89.407h89.407c40.395,0,73.15,32.755,73.15,73.15c0,0-0.163,216.77-0.488,219.452H459.214z"/>
<path style="fill:#FDB51E;" d="M199.611,365.325c-0.325-2.682-0.487-219.452-0.487-219.452c0-40.395,32.755-73.15,73.15-73.15
	h-16.255h-89.407c-40.395,0-73.15,32.755-73.15,73.15c0,0,0.163,216.769,0.487,219.452H52.822v40.64h105.662v-40.64H199.611z"/>
<path d="M467.297,357.625h-41.05c0.227-29.859,0.347-127.594,0.41-211.351c0-44.802-36.449-81.252-81.252-81.252h-56.973
	c5.13-6.8,8.178-15.255,8.178-24.411C296.613,18.219,278.394,0,256,0c-22.394,0-40.613,18.219-40.613,40.613
	c0,9.156,3.048,17.611,8.178,24.411h-56.973c-44.802,0-81.252,36.45-81.252,81.257c0.064,83.751,0.184,181.486,0.41,211.345H44.703
	v97.479h146.824C195.53,487.132,222.906,512,256,512s60.47-24.868,64.473-56.895h146.824V357.625z M231.59,40.613
	c0-13.46,10.951-24.411,24.411-24.411c13.46,0,24.411,10.951,24.411,24.411s-10.951,24.411-24.411,24.411
	C242.541,65.024,231.59,54.073,231.59,40.613z M158.466,373.826v-16.201h-56.537c-0.207-32.566-0.345-159.216-0.385-211.351
	c0-35.869,29.182-65.051,65.051-65.051h178.812c35.869,0,65.051,29.182,65.051,65.044c-0.04,52.14-0.177,178.791-0.384,211.358
	h-56.537v16.201h97.561v24.438H60.904v-24.438H158.466z M256,495.799c-14.44,0-27.428-6.31-36.369-16.31h44.498v-16.201h-54.118
	c-0.934-2.631-1.646-5.366-2.119-8.182h96.218C300.237,478.167,280.144,495.799,256,495.799z M60.904,438.904v-24.437h390.192
	v24.437H60.904z"/>
<rect x="247.87" y="357.629" style="fill:#FFFFFF;" width="16.255" height="16.201"/>
<rect x="280.381" y="357.629" width="16.255" height="16.201"/>
<rect x="312.892" y="357.629" style="fill:#FFFFFF;" width="16.255" height="16.201"/>
<rect x="215.359" y="357.629" width="16.255" height="16.201"/>
<g>
	<rect x="182.849" y="357.629" style="fill:#FFFFFF;" width="16.255" height="16.201"/>
	<path style="fill:#FFFFFF;" d="M184.47,121.7l-1.62-7.938l-1.589-7.943c-16.309,3.262-47.151,19.312-47.151,56.71h16.201
		C150.311,129.199,183.074,121.991,184.47,121.7z"/>
</g>
<rect x="134.115" y="178.788" width="16.201" height="48.766"/>
<rect x="247.87" y="32.511" style="fill:#FFFFFF;" width="16.255" height="16.201"/>
</svg>