<?xml version="1.0" encoding="iso-8859-1"?>
<!-- Uploaded to: SVG Repo, www.svgrepo.com, Generator: SVG Repo Mixer Tools -->
<svg version="1.1" id="Layer_1" xmlns="http://www.w3.org/2000/svg" xmlns:xlink="http://www.w3.org/1999/xlink" 
	 viewBox="0 0 512 512" xml:space="preserve">
<path style="fill:#FFDC64;" d="M435.574,230.347H332.96v239.432h102.614c4.722,0,8.551-3.829,8.551-8.551v-222.33
	C444.125,234.176,440.298,230.347,435.574,230.347z"/>
<rect x="375.716" y="230.347" style="fill:#5B5D6E;" width="34.205" height="239.432"/>
<rect x="341.512" y="230.347" style="fill:#FFC850;" width="34.205" height="239.432"/>
<path style="fill:#5B5D6E;" d="M307.307,503.984H102.079c-18.891,0-34.205-15.314-34.205-34.205V110.631
	c0-18.891,15.314-34.205,34.205-34.205h205.228c18.891,0,34.205,15.314,34.205,34.205v359.148
	C341.512,488.67,326.198,503.984,307.307,503.984z"/>
<path style="fill:#464655;" d="M110.631,469.779V110.631c0-18.891,15.314-34.205,34.205-34.205h-42.756
	c-18.891,0-34.205,15.314-34.205,34.205v359.148c0,18.891,15.314,34.205,34.205,34.205h42.756
	C125.945,503.984,110.631,488.67,110.631,469.779z"/>
<g>
	<path style="fill:#C7CFE2;" d="M208.969,332.961h-8.551c-9.446,0-17.102-7.656-17.102-17.102l0,0
		c0-9.446,7.656-17.102,17.102-17.102h8.551c9.446,0,17.102,7.656,17.102,17.102l0,0
		C226.071,325.304,218.415,332.961,208.969,332.961z"/>
	<path style="fill:#C7CFE2;" d="M208.969,401.37h-8.551c-9.446,0-17.102-7.656-17.102-17.102l0,0
		c0-9.446,7.656-17.102,17.102-17.102h8.551c9.446,0,17.102,7.656,17.102,17.102l0,0C226.071,393.713,218.415,401.37,208.969,401.37
		z"/>
</g>
<path style="fill:#FFDC64;" d="M208.969,469.779h-8.551c-9.446,0-17.102-7.656-17.102-17.102l0,0
	c0-9.446,7.656-17.102,17.102-17.102h8.551c9.446,0,17.102,7.656,17.102,17.102l0,0
	C226.071,462.122,218.415,469.779,208.969,469.779z"/>
<g>
	<path style="fill:#C7CFE2;" d="M285.929,332.961h-8.551c-9.446,0-17.102-7.656-17.102-17.102l0,0
		c0-9.446,7.656-17.102,17.102-17.102h8.551c9.446,0,17.102,7.656,17.102,17.102l0,0
		C303.031,325.304,295.375,332.961,285.929,332.961z"/>
	<path style="fill:#C7CFE2;" d="M285.929,401.37h-8.551c-9.446,0-17.102-7.656-17.102-17.102l0,0
		c0-9.446,7.656-17.102,17.102-17.102h8.551c9.446,0,17.102,7.656,17.102,17.102l0,0C303.031,393.713,295.375,401.37,285.929,401.37
		z"/>
</g>
<path style="fill:#C8FF82;" d="M285.929,469.779h-8.551c-9.446,0-17.102-7.656-17.102-17.102l0,0
	c0-9.446,7.656-17.102,17.102-17.102h8.551c9.446,0,17.102,7.656,17.102,17.102l0,0
	C303.031,462.122,295.375,469.779,285.929,469.779z"/>
<g>
	<path style="fill:#C7CFE2;" d="M132.008,332.961h-8.551c-9.446,0-17.102-7.656-17.102-17.102l0,0
		c0-9.446,7.656-17.102,17.102-17.102h8.551c9.446,0,17.102,7.656,17.102,17.102l0,0
		C149.111,325.304,141.454,332.961,132.008,332.961z"/>
	<path style="fill:#C7CFE2;" d="M132.008,401.37h-8.551c-9.446,0-17.102-7.656-17.102-17.102l0,0
		c0-9.446,7.656-17.102,17.102-17.102h8.551c9.446,0,17.102,7.656,17.102,17.102l0,0C149.111,393.713,141.454,401.37,132.008,401.37
		z"/>
</g>
<path style="fill:#FF507D;" d="M132.008,469.779h-8.551c-9.446,0-17.102-7.656-17.102-17.102l0,0
	c0-9.446,7.656-17.102,17.102-17.102h8.551c9.446,0,17.102,7.656,17.102,17.102l0,0
	C149.111,462.122,141.454,469.779,132.008,469.779z"/>
<path style="fill:#B4E66E;" d="M298.756,170.489H110.631c-4.722,0-8.551,3.829-8.551,8.551V256c0,4.722,3.829,8.551,8.551,8.551
	h188.125c4.722,0,8.551-3.829,8.551-8.551v-76.96C307.307,174.318,303.478,170.489,298.756,170.489z"/>
<polygon style="fill:#E4EAF8;" points="275.24,16.568 251.725,8.017 228.209,16.568 204.693,8.017 181.178,16.568 157.662,8.017 
	134.146,16.568 110.631,8.017 110.631,136.284 298.756,136.284 298.756,8.017 "/>
<g>
	<path style="fill:#C8FF82;" d="M151.226,238.898h48.89c2.859,0,5.529-1.429,7.115-3.807l22.42-33.631
		c1.516-2.274-0.114-5.318-2.846-5.318h-48.89c-2.859,0-5.529,1.429-7.115,3.807l-22.42,33.631
		C146.865,235.854,148.494,238.898,151.226,238.898z"/>
	<path style="fill:#C8FF82;" d="M228.186,238.898h14.686c2.859,0,5.529-1.429,7.115-3.807l22.42-33.631
		c1.516-2.274-0.114-5.318-2.846-5.318h-14.686c-2.859,0-5.529,1.429-7.115,3.807l-22.42,33.631
		C223.825,235.854,225.454,238.898,228.186,238.898z"/>
</g>
<path d="M230.346,110.096h34.206c4.427,0,8.017-3.589,8.017-8.017c0-4.427-3.589-8.017-8.017-8.017h-34.206
	c-4.427,0-8.017,3.589-8.017,8.017C222.329,106.507,225.918,110.096,230.346,110.096z"/>
<path d="M144.835,110.096h51.307c4.427,0,8.017-3.589,8.017-8.017c0-4.427-3.589-8.017-8.017-8.017h-51.307
	c-4.427,0-8.017,3.589-8.017,8.017C136.818,106.507,140.408,110.096,144.835,110.096z"/>
<path d="M247.447,75.892h17.104c4.427,0,8.017-3.589,8.017-8.017c0-4.427-3.589-8.017-8.017-8.017h-17.104
	c-4.427,0-8.017,3.589-8.017,8.017C239.43,72.302,243.019,75.892,247.447,75.892z"/>
<path d="M196.146,75.892h17.097c4.427,0,8.017-3.589,8.017-8.017c0-4.427-3.589-8.017-8.017-8.017h-17.097
	c-4.427,0-8.017,3.589-8.017,8.017C188.13,72.302,191.719,75.892,196.146,75.892z"/>
<path d="M144.835,75.892h17.103c4.427,0,8.017-3.589,8.017-8.017c0-4.427-3.589-8.017-8.017-8.017h-17.103
	c-4.427,0-8.017,3.589-8.017,8.017C136.818,72.302,140.408,75.892,144.835,75.892z"/>
<path d="M435.574,222.33h-86.046V110.631c0-23.281-18.941-42.221-42.221-42.221h-0.534V8.017c0-2.615-1.275-5.065-3.417-6.566
	s-4.882-1.862-7.339-0.967L275.24,8.038l-20.776-7.555c-1.769-0.643-3.71-0.643-5.479,0l-20.776,7.555l-20.776-7.555
	c-1.769-0.643-3.71-0.643-5.479,0l-20.776,7.555l-20.776-7.555c-1.769-0.643-3.71-0.643-5.479,0l-20.776,7.555L113.37,0.483
	c-2.456-0.894-5.196-0.533-7.339,0.967c-2.142,1.501-3.417,3.952-3.417,6.566v60.392h-0.534c-23.281,0-42.221,18.941-42.221,42.221
	v359.148c0,23.28,18.941,42.221,42.221,42.221h205.228c20.54,0,37.691-14.745,41.449-34.205h86.819
	c9.136,0,16.568-7.432,16.568-16.568v-222.33C452.142,229.762,444.71,222.33,435.574,222.33z M367.699,238.363v223.399h-18.171
	V238.363H367.699z M118.647,19.463l12.759,4.639c1.769,0.643,3.71,0.643,5.479,0l20.776-7.555l20.776,7.555
	c1.769,0.643,3.71,0.643,5.479,0l20.776-7.555l20.776,7.555c1.769,0.643,3.71,0.643,5.479,0l20.776-7.555l20.776,7.555
	c1.769,0.643,3.71,0.643,5.479,0l12.759-4.639v108.805H118.647V19.463z M307.307,495.967H102.079
	c-14.44,0-26.188-11.748-26.188-26.188V110.631c0-14.44,11.748-26.188,26.188-26.188h0.534v43.825h-0.534
	c-4.427,0-8.017,3.589-8.017,8.017s3.589,8.017,8.017,8.017h205.228c4.427,0,8.017-3.589,8.017-8.017s-3.589-8.017-8.017-8.017
	h-0.534V84.443h0.534c14.44,0,26.188,11.748,26.188,26.188v359.148C333.495,484.219,321.747,495.967,307.307,495.967z
	 M436.109,461.228c0,0.294-0.239,0.534-0.534,0.534h-17.637V298.755c0-4.428-3.589-8.017-8.017-8.017
	c-4.427,0-8.017,3.588-8.017,8.017v163.007h-18.171V238.363h18.171v26.185c0,4.427,3.589,8.017,8.017,8.017
	c4.427,0,8.017-3.589,8.017-8.017v-26.185h17.637c0.295,0,0.534,0.241,0.534,0.534V461.228z"/>
<path d="M208.969,290.739h-8.551c-13.851,0-25.119,11.268-25.119,25.119s11.268,25.119,25.119,25.119h8.551
	c13.851,0,25.119-11.268,25.119-25.119S222.82,290.739,208.969,290.739z M208.969,324.944h-8.551c-5.01,0-9.086-4.076-9.086-9.086
	s4.076-9.086,9.086-9.086h8.551c5.01,0,9.086,4.076,9.086,9.086S213.979,324.944,208.969,324.944z"/>
<path d="M208.969,359.148h-8.551c-13.851,0-25.119,11.268-25.119,25.119c0,13.851,11.268,25.119,25.119,25.119h8.551
	c13.851,0,25.119-11.268,25.119-25.119C234.088,370.417,222.82,359.148,208.969,359.148z M208.969,393.353h-8.551
	c-5.01,0-9.086-4.076-9.086-9.086c0-5.01,4.076-9.086,9.086-9.086h8.551c5.01,0,9.086,4.076,9.086,9.086
	C218.054,389.277,213.979,393.353,208.969,393.353z"/>
<path d="M208.969,427.558h-8.551c-13.851,0-25.119,11.268-25.119,25.119c0,13.851,11.268,25.119,25.119,25.119h8.551
	c13.851,0,25.119-11.268,25.119-25.119C234.088,438.826,222.82,427.558,208.969,427.558z M208.969,461.762h-8.551
	c-5.01,0-9.086-4.076-9.086-9.086s4.076-9.086,9.086-9.086h8.551c5.01,0,9.086,4.076,9.086,9.086S213.979,461.762,208.969,461.762z"
	/>
<path d="M285.929,290.739h-8.551c-13.851,0-25.119,11.268-25.119,25.119s11.268,25.119,25.119,25.119h8.551
	c13.851,0,25.119-11.268,25.119-25.119S299.78,290.739,285.929,290.739z M285.929,324.944h-8.551c-5.01,0-9.086-4.076-9.086-9.086
	s4.076-9.086,9.086-9.086h8.551c5.01,0,9.086,4.076,9.086,9.086S290.939,324.944,285.929,324.944z"/>
<path d="M285.929,359.148h-8.551c-13.851,0-25.119,11.268-25.119,25.119c0,13.851,11.268,25.119,25.119,25.119h8.551
	c13.851,0,25.119-11.268,25.119-25.119C311.048,370.417,299.78,359.148,285.929,359.148z M285.929,393.353h-8.551
	c-5.01,0-9.086-4.076-9.086-9.086c0-5.01,4.076-9.086,9.086-9.086h8.551c5.01,0,9.086,4.076,9.086,9.086
	C295.015,389.277,290.939,393.353,285.929,393.353z"/>
<path d="M285.929,427.558h-8.551c-13.851,0-25.119,11.268-25.119,25.119c0,13.851,11.268,25.119,25.119,25.119h8.551
	c13.851,0,25.119-11.268,25.119-25.119C311.048,438.826,299.78,427.558,285.929,427.558z M285.929,461.762h-8.551
	c-5.01,0-9.086-4.076-9.086-9.086s4.076-9.086,9.086-9.086h8.551c5.01,0,9.086,4.076,9.086,9.086S290.939,461.762,285.929,461.762z"
	/>
<path d="M132.008,290.739h-8.551c-13.851,0-25.119,11.268-25.119,25.119s11.268,25.119,25.119,25.119h8.551
	c13.851,0,25.119-11.268,25.119-25.119S145.859,290.739,132.008,290.739z M132.008,324.944h-8.551c-5.01,0-9.086-4.076-9.086-9.086
	s4.076-9.086,9.086-9.086h8.551c5.01,0,9.086,4.076,9.086,9.086S137.018,324.944,132.008,324.944z"/>
<path d="M132.008,359.148h-8.551c-13.851,0-25.119,11.268-25.119,25.119c0,13.851,11.268,25.119,25.119,25.119h8.551
	c13.851,0,25.119-11.268,25.119-25.119C157.127,370.417,145.859,359.148,132.008,359.148z M132.008,393.353h-8.551
	c-5.01,0-9.086-4.076-9.086-9.086c0-5.01,4.076-9.086,9.086-9.086h8.551c5.01,0,9.086,4.076,9.086,9.086
	C141.094,389.277,137.018,393.353,132.008,393.353z"/>
<path d="M132.008,427.558h-8.551c-13.851,0-25.119,11.268-25.119,25.119c0,13.851,11.268,25.119,25.119,25.119h8.551
	c13.851,0,25.119-11.268,25.119-25.119C157.127,438.826,145.859,427.558,132.008,427.558z M132.008,461.762h-8.551
	c-5.01,0-9.086-4.076-9.086-9.086s4.076-9.086,9.086-9.086h8.551c5.01,0,9.086,4.076,9.086,9.086S137.018,461.762,132.008,461.762z"
	/>
<path d="M298.756,162.472H110.631c-9.136,0-16.568,7.432-16.568,16.568V256c0,9.136,7.432,16.568,16.568,16.568h188.125
	c9.136,0,16.568-7.432,16.568-16.568v-76.96C315.324,169.904,307.892,162.472,298.756,162.472z M299.29,256
	c0,0.294-0.239,0.534-0.534,0.534H110.631c-0.295,0-0.534-0.241-0.534-0.534v-76.96c0-0.294,0.239-0.534,0.534-0.534h188.125
	c0.295,0,0.534,0.241,0.534,0.534V256z"/>
</svg>