<?xml version="1.0" ?>
<!DOCTYPE svg  PUBLIC '-//W3C//DTD SVG 1.1//EN'  'http://www.w3.org/Graphics/SVG/1.1/DTD/svg11.dtd'>
<!-- Uploaded to: SVG Repo, www.svgrepo.com, Generator: SVG Repo Mixer Tools -->
<svg width="800px" height="800px" viewBox="0 0 512 512" version="1.1" xml:space="preserve" xmlns="http://www.w3.org/2000/svg" xmlns:xlink="http://www.w3.org/1999/xlink">
<g id="email_x2C__mail__x2C__letter__x2C__internet__x2C__envelope__x2C__chat__x2C___left__x2C_">
<g>
<path d="M438.446,254.111V123.197c0-9.686-3.976-18.585-10.405-24.934    L296.348,229.971l-25.721,25.713c-9.164,9.171-21.142,13.837-33.209,13.837c-11.985,0-23.963-4.666-33.127-13.837l-25.72-25.713    l-54.975,54.622l-76.727,76.373c6.342,6.351,15.241,10.312,24.927,10.312h227.996c-2.387-8.466-3.622-17.284-3.622-26.535    c0-27.565,11.192-52.58,29.343-70.648c18.056-18.138,43.085-29.315,70.649-29.315    C411.315,244.778,425.586,248.115,438.446,254.111L438.446,254.111z" style="fill-rule:evenodd;clip-rule:evenodd;fill:#D8A878;"/>
<path d="M123.596,284.593l54.975-54.622L46.869,98.263    c-6.43,6.349-10.398,15.248-10.398,24.934v212.754c0,9.769,3.968,18.585,10.398,25.015L123.596,284.593z" style="fill-rule:evenodd;clip-rule:evenodd;fill:#D8A878;"/>
<path d="M396.162,265.37c-43.789,0-79.372,35.609-79.372,79.372    c0,43.871,35.583,79.387,79.372,79.387c43.872,0,79.372-35.516,79.372-79.387C475.534,300.979,440.034,265.37,396.162,265.37    L396.162,265.37z" style="fill-rule:evenodd;clip-rule:evenodd;fill:#F36360;"/>
<path d="M396.162,272.086c-20.09,0-38.228,8.193-51.359,21.297c-13.131,13.132-21.229,31.283-21.229,51.359    c0,20.104,8.099,38.256,21.229,51.469c13.132,13.104,31.27,21.216,51.359,21.216c20.077,0,38.309-8.112,51.44-21.216    c13.132-13.213,21.244-31.365,21.244-51.469c0-20.076-8.112-38.228-21.244-51.359    C434.471,280.279,416.239,272.086,396.162,272.086L396.162,272.086z M335.28,283.888c15.601-15.506,37.183-25.191,60.882-25.191    c23.781,0,45.281,9.686,60.868,25.191c15.588,15.573,25.192,37.088,25.192,60.854c0,23.794-9.604,45.282-25.192,60.883    c-15.587,15.601-37.087,25.204-60.868,25.204c-23.699,0-45.281-9.604-60.882-25.204c-15.492-15.601-25.191-37.089-25.191-60.883    C310.089,320.976,319.788,299.461,335.28,283.888L335.28,283.888z" style="fill:#4A374F;"/>
<path d="M301.814,377.979H71.796c-5.636,0-11.008-1.167-16.028-3.175c-5.114-2.116-9.78-5.291-13.66-9.171    l9.428-9.441c2.645,2.659,5.813,4.774,9.34,6.268c3.344,1.329,7.047,2.116,10.92,2.116h226.396    C299.087,369.16,300.309,373.637,301.814,377.979L301.814,377.979z" style="fill:#4A374F;"/>
<path d="M301.108,225.305l37.44,37.786l-0.176,0.082l-0.081,0.082l-0.096,0.108l-0.177,0.081l-0.176,0.081    l-0.176,0.189l-0.177,0.082l-0.177,0.081v0.082l-0.176,0.108l-0.177,0.082l-0.176,0.162l-0.095,0.108l-0.164,0.162l-0.189,0.082    l0,0l-0.163,0.108l-0.189,0.163l-0.163,0.082l-0.189,0.189l-0.163,0.081l-0.095,0.081l-0.095,0.108l-0.163,0.082l-0.096,0.163    l-0.176,0.108l-0.882,0.597l-0.176,0.189l-0.082,0.082l-0.189,0.189l0,0l-0.163,0.081l-0.189,0.164l-0.163,0.108l-0.189,0.162    l-0.164,0.081l-0.095,0.108v0.081l-0.176,0.082l-0.163,0.19l-0.189,0.081l-0.177,0.163l-0.61,0.543l-0.177,0.162l-0.176,0.108    l-0.082,0.163h-0.095l-0.095,0.081l-0.162,0.19l-0.19,0.081l-0.163,0.163l-0.095,0.189l-0.176,0.095l0,0l-0.177,0.163    l-0.177,0.082l-0.081,0.189l-0.189,0.163l-0.163,0.107l-0.095,0.082l-0.096,0.081l-0.081,0.082l-0.177,0.19l-0.176,0.162    l-0.177,0.108l-0.095,0.163l-36.546-36.831L301.108,225.305z M431.759,251.289V123.197c0-3.88-0.801-7.57-2.212-10.921    c-1.41-3.431-3.526-6.606-6.172-9.346l9.441-9.415c3.866,3.866,6.945,8.452,9.144,13.646c2.035,4.938,3.174,10.393,3.174,16.035    v134.333l-0.258-0.081l-0.176-0.081l-0.177-0.189l-0.177-0.082l-0.176-0.081l-0.258-0.081l-0.096-0.109l-0.095-0.083l-0.162-0.081    l-0.271-0.081l-0.176-0.109l-0.177-0.162h-0.177l-0.095-0.082l-0.163-0.108l-0.189-0.082l-0.163-0.082l-0.271-0.19l-0.176-0.082    l0,0l-0.177-0.081l-0.258-0.081l-0.176-0.081l-0.177-0.191l-0.271-0.082l0,0l-0.177-0.081l-0.162-0.109l-0.271-0.081l-0.178-0.082    l-0.176-0.109l-0.082-0.081l-0.189-0.081l-0.162-0.082l-0.272-0.109l-0.176-0.081l-0.176-0.082l-0.177-0.081h-0.096l-0.162-0.081    l-0.189-0.109l-0.258-0.082l-0.177-0.162l-0.177-0.11h-0.095l-0.787-0.352l-0.271-0.082l0,0l-0.163-0.081l-0.19-0.082    l-0.257-0.109l-0.177-0.082l-0.271-0.081l-0.081-0.081h-0.082l-0.189-0.109l-0.258-0.081l-0.177-0.081l-0.257-0.082l-0.177-0.109    l0,0l-0.271-0.082l-0.177-0.081l-0.176-0.082l-0.258-0.109l-0.177-0.081l0,0l-0.271-0.081l-0.163-0.081l-0.271-0.109l-0.177-0.081    L431.759,251.289z" style="fill:#4A374F;"/>
<path d="M446.382,337.444c3.69,0,6.688,2.984,6.688,6.701c0,3.689-2.997,6.674-6.605,6.674l-85.017,0.543    l17.894,18.775c2.551,2.713,2.375,6.944-0.271,9.413c-2.646,2.552-6.864,2.471-9.43-0.189L341.1,349.409    c-2.469-2.632-2.374-6.675,0-9.225l28.541-29.953c2.565-2.74,6.783-2.822,9.43-0.271c2.646,2.55,2.821,6.781,0.271,9.414    l-17.717,18.585L446.382,337.444z" style="fill:#4A374F;"/>
<path d="M51.536,102.93c-2.645,2.74-4.755,5.916-6.254,9.346c-1.322,3.351-2.116,7.041-2.116,10.921    v212.754c0,3.88,0.794,7.57,2.116,10.907c0.617,1.411,1.323,2.822,2.116,4.069l126.5-125.719l9.428,9.503L46.781,370.381    l-4.673-4.748c-3.873-3.798-6.959-8.465-9.157-13.565c-2.028-5.02-3.174-10.473-3.174-16.116V123.197    c0-5.643,1.146-11.097,3.174-16.035c2.198-5.194,5.284-9.78,9.157-13.646L51.536,102.93z" style="fill:#4A374F;"/>
<path d="M428.041,98.263L270.627,255.684    c-9.164,9.171-21.142,13.837-33.209,13.837c-11.985,0-23.963-4.666-33.215-13.837L46.869,98.263    c6.342-6.335,15.241-10.391,24.927-10.391h331.325C412.712,87.872,421.706,91.928,428.041,98.263L428.041,98.263z" style="fill-rule:evenodd;clip-rule:evenodd;fill:#D8A878;"/>
<path d="M432.816,103.025L275.375,260.352c-5.101,5.209-11.091,9.089-17.432,11.734    c-6.525,2.821-13.566,4.123-20.525,4.123c-6.877,0-13.924-1.302-20.443-4.123c-6.342-2.646-12.331-6.525-17.438-11.734    L37.353,98.263l4.755-4.748c3.88-3.879,8.546-6.972,13.66-9.075c5.02-2.117,10.392-3.269,16.028-3.269h331.325    c5.63,0,11.002,1.152,16.021,3.269c5.127,2.103,9.794,5.196,13.674,9.075l4.748,4.748L432.816,103.025z M265.96,250.937    L418.003,98.792c-1.221-0.786-2.55-1.492-3.961-2.021c-3.337-1.411-7.054-2.198-10.921-2.198H71.796    c-3.873,0-7.576,0.787-10.92,2.198c-1.411,0.529-2.734,1.235-4.056,2.021l152.137,152.144c3.968,3.88,8.37,6.865,13.132,8.817    c4.931,2.116,10.126,3.066,15.329,3.066c5.284,0,10.479-0.95,15.411-3.066C257.591,257.802,261.992,254.816,265.96,250.937    L265.96,250.937z" style="fill:#4A374F;"/>
</g>
</g>
<g id="Layer_1"/>
</svg>