<?xml version="1.0" ?>
<!DOCTYPE svg  PUBLIC '-//W3C//DTD SVG 1.1//EN'  'http://www.w3.org/Graphics/SVG/1.1/DTD/svg11.dtd'>
<!-- Uploaded to: SVG Repo, www.svgrepo.com, Generator: SVG Repo Mixer Tools -->
<svg width="800px" height="800px" viewBox="0 0 512 512" version="1.1" xml:space="preserve" xmlns="http://www.w3.org/2000/svg" xmlns:xlink="http://www.w3.org/1999/xlink">
<g id="email_x2C__mail__x2C__letter__x2C__internet__x2C__envelope__x2C__chat__x2C___right__x2C_">
<g>
<path d="M438.433,254.101V123.193c0-9.686-3.962-18.585-10.392-24.934    L296.348,229.968l-25.721,25.72c-9.164,9.156-21.142,13.837-33.216,13.837c-11.979,0-23.957-4.681-33.208-13.837l-25.639-25.72    l-54.968,54.615l-76.727,76.374c6.335,6.348,15.235,10.309,24.934,10.309h227.881c-2.279-8.368-3.501-17.269-3.501-26.507    c0-27.578,11.179-52.593,29.329-70.662c18.042-18.137,43.085-29.329,70.649-29.329    C411.302,244.768,425.572,248.119,438.433,254.101L438.433,254.101z" style="fill-rule:evenodd;clip-rule:evenodd;fill:#FBCD64;"/>
<path d="M123.596,284.583l54.968-54.615L46.774,98.259    c-6.335,6.349-10.296,15.248-10.296,24.934v212.749c0,9.781,3.961,18.585,10.296,25.016L123.596,284.583z" style="fill-rule:evenodd;clip-rule:evenodd;fill:#FBCD64;"/>
<path d="M51.536,103.021c-2.645,2.645-4.762,5.819-6.254,9.252c-1.316,3.35-2.116,7.054-2.116,10.92    v212.749c0,3.961,0.8,7.665,2.116,10.92c0.611,1.412,1.316,2.822,2.116,4.057l126.418-125.712l9.415,9.522L46.774,370.384    l-4.666-4.666c-3.88-3.88-7.041-8.546-9.157-13.659c-2.035-5.021-3.174-10.393-3.174-16.117V123.193    c0-5.63,1.139-11.097,3.174-16.035c2.116-5.196,5.277-9.767,9.157-13.647L51.536,103.021z" style="fill:#4A374F;"/>
<path d="M396.162,265.388c-43.871,0-79.386,35.583-79.386,79.371    c0,43.872,35.515,79.373,79.386,79.373c43.872,0,79.358-35.501,79.358-79.373C475.521,300.971,440.034,265.388,396.162,265.388    L396.162,265.388z" style="fill-rule:evenodd;clip-rule:evenodd;fill:#F36360;"/>
<path d="M396.162,272.075c-20.077,0-38.228,8.193-51.359,21.325    c-13.131,13.117-21.324,31.269-21.324,51.358c0,20.077,8.193,38.31,21.324,51.441c13.132,13.131,31.282,21.229,51.359,21.229    s38.228-8.099,51.44-21.229c13.132-13.132,21.244-31.364,21.244-51.441c0-20.09-8.112-38.241-21.244-51.358    C434.39,280.269,416.239,272.075,396.162,272.075L396.162,272.075z M335.28,283.877c15.601-15.506,37.087-25.191,60.882-25.191    c23.794,0,45.281,9.686,60.883,25.191c15.573,15.601,25.178,37.089,25.178,60.882c0,23.78-9.604,45.269-25.178,60.869    c-15.602,15.587-37.089,25.191-60.883,25.191c-23.795,0-45.281-9.604-60.882-25.191c-15.492-15.601-25.179-37.089-25.179-60.869    C310.102,320.966,319.788,299.478,335.28,283.877L335.28,283.877z" style="fill:#4A374F;"/>
<path d="M178.564,229.968l25.639,25.72    c9.252,9.156,21.23,13.837,33.208,13.837c12.074,0,24.052-4.681,33.216-13.837l25.721-25.72L428.041,98.259    c-6.321-6.335-15.329-10.391-24.933-10.391H71.803c-9.699,0-18.599,4.056-24.934,10.391L178.564,229.968z" style="fill-rule:evenodd;clip-rule:evenodd;fill:#FBCD64;"/>
<path d="M301.801,377.968H71.803c-5.643,0-11.11-1.153-16.035-3.174c-5.114-2.117-9.78-5.291-13.66-9.158    l9.428-9.427c2.645,2.645,5.82,4.748,9.333,6.253c3.351,1.316,7.054,2.116,10.934,2.116H298.11    C299.087,369.15,300.309,373.653,301.801,377.968L301.801,377.968z" style="fill:#4A374F;"/>
<path d="M301.014,225.301l37.522,37.794l-0.163,0.081l-0.081,0.095l-0.109,0.082l-0.163,0.096l-0.189,0.081    l-0.162,0.176l-0.189,0.096l-0.164,0.176l0,0l-0.189,0.081l-0.163,0.096l-0.189,0.176l-0.164,0.081l-0.189,0.177l-0.081,0.081l0,0    l-0.163,0.096l-0.189,0.176l-0.163,0.096l-0.189,0.176l-0.163,0.082l-0.108,0.095l-0.081,0.081l-0.163,0.08l-0.19,0.178    l-0.081,0.096l-0.868,0.609l-0.189,0.177l-0.163,0.096l-0.108,0.176l0,0l-0.163,0.081l-0.189,0.176l-0.163,0.096l-0.189,0.177    l-0.164,0.081l-0.081,0.095v0.081l-0.189,0.096l-0.163,0.176l-0.189,0.081l-0.163,0.177l-0.624,0.529l-0.19,0.176l-0.162,0.096    l-0.082,0.176h-0.107l-0.082,0.082l-0.162,0.176l-0.19,0.178l-0.163,0.095l-0.108,0.176l-0.162,0.081l0,0l-0.19,0.176    l-0.163,0.095l-0.189,0.178l-0.081,0.176l-0.163,0.082l-0.108,0.095l-0.082,0.081l-0.163,0.095l-0.108,0.176l-0.162,0.178    l-0.189,0.081l-0.164,0.177l-36.464-36.818L301.014,225.301z M431.759,251.279V123.193c0-3.866-0.814-7.57-2.226-10.92    c-1.41-3.433-3.499-6.607-6.239-9.252l9.522-9.51c3.853,3.88,6.945,8.451,9.062,13.647c2.117,4.938,3.256,10.405,3.256,16.035    v134.354l-0.244-0.096l-0.189-0.081l-0.164-0.176l-0.189-0.097l-0.271-0.08l-0.163-0.095l-0.108-0.082l-0.082-0.095l-0.162-0.081    l-0.271-0.095l-0.162-0.082l-0.19-0.177h-0.163l-0.108-0.095l-0.163-0.082l-0.189-0.095l-0.244-0.081l-0.19-0.177l-0.162-0.095    l0,0l-0.272-0.081l-0.189-0.095l-0.162-0.082l-0.271-0.095l-0.163-0.176l0,0l-0.19-0.081l-0.271-0.095l-0.162-0.081l-0.19-0.095    l-0.245-0.082l-0.107-0.095l-0.082-0.081l-0.162-0.095l-0.272-0.082l-0.189-0.095l-0.162-0.082l-0.19-0.095h-0.082l-0.162-0.081    l-0.271-0.095l-0.189-0.082l-0.163-0.095l-0.271-0.176l0,0l-0.787-0.353l-0.271-0.081l0,0l-0.163-0.095l-0.19-0.081l-0.244-0.095    l-0.189-0.082l-0.271-0.095l-0.081-0.082h-0.082l-0.271-0.095l-0.163-0.082l-0.19-0.095l-0.271-0.082l-0.163-0.095l0,0    l-0.271-0.081l-0.163-0.095l-0.271-0.082l-0.189-0.096l-0.164-0.081h-0.081l-0.189-0.095l-0.163-0.081l-0.271-0.095l-0.189-0.082    L431.759,251.279z" style="fill:#4A374F;"/>
<path d="M432.816,103.021L275.375,260.354c-5.101,5.194-11.091,9.075-17.438,11.815    c-6.607,2.727-13.566,4.043-20.525,4.043c-6.958,0-13.917-1.316-20.43-4.043c-6.349-2.74-12.331-6.621-17.445-11.815L37.36,98.259    l4.749-4.748c3.88-3.88,8.546-6.959,13.66-9.075c4.925-2.116,10.392-3.256,16.035-3.256h331.305c5.643,0,11.015,1.14,16.034,3.256    c5.127,2.116,9.794,5.195,13.674,9.075l4.748,4.748L432.816,103.021z M265.953,250.927l152.05-152.139    c-1.221-0.787-2.55-1.492-3.961-2.021c-3.337-1.411-7.054-2.198-10.934-2.198H71.803c-3.88,0-7.583,0.787-10.934,2.198    c-1.411,0.529-2.727,1.234-4.042,2.021l152.137,152.139c3.866,3.88,8.356,6.878,13.118,8.817c4.938,2.117,10.133,3.08,15.329,3.08    c5.291,0,10.486-0.963,15.424-3.08C257.583,257.805,261.992,254.807,265.953,250.927L265.953,250.927z" style="fill:#4A374F;"/>
<path d="M345.942,350.836c-3.689,0-6.701-2.998-6.701-6.701c0.108-3.702,3.093-6.687,6.701-6.687    l84.84,0.528l-17.717-18.598c-2.55-2.646-2.469-6.865,0.189-9.429c2.714-2.551,6.946-2.375,9.496,0.271l28.46,29.952    c2.47,2.551,2.47,6.606,0,9.252l-28.46,29.952c-2.55,2.646-6.782,2.727-9.496,0.259c-2.658-2.551-2.739-6.783-0.189-9.51    l17.879-18.761L345.942,350.836z" style="fill:#4A374F;"/>
</g>
</g>
<g id="Layer_1"/>
</svg>