<svg xmlns="http://www.w3.org/2000/svg" viewBox="0 0 64 64" id="internet">
  <path fill="#f71735" d="M62 17h-2A13.015 13.015 0 0 0 47 4V2a15.017 15.017 0 0 1 15 15Z"></path>
  <path fill="#7fb800" d="M58 17h-2a9.011 9.011 0 0 0-9-9V6a11.013 11.013 0 0 1 11 11Z"></path>
  <path fill="#ff9f1c" d="M54 17h-2a5.006 5.006 0 0 0-5-5v-2a7.008 7.008 0 0 1 7 7Z"></path>
  <circle cx="47" cy="17" r="2" fill="#41ead4"></circle>
  <path fill="#f71735" d="M4 17H2A15.017 15.017 0 0 1 17 2v2A13.015 13.015 0 0 0 4 17Z"></path>
  <path fill="#7fb800" d="M8 17H6A11.013 11.013 0 0 1 17 6v2a9.011 9.011 0 0 0-9 9Z"></path>
  <path fill="#ff9f1c" d="M12 17h-2a7.008 7.008 0 0 1 7-7v2a5.006 5.006 0 0 0-5 5Z"></path>
  <circle cx="17" cy="17" r="2" fill="#41ead4"></circle>
  <path fill="#1b98e0" d="M53 40a21.012 21.012 0 1 1-6.31-15A20.915 20.915 0 0 1 53 40Z"></path>
  <path fill="#41ead4" d="M47.19 54.5a21 21 0 0 1-30.38 0 20.982 20.982 0 0 1 30.38 0zm-.5-29.5a20.961 20.961 0 0 1-8.51 5.08 21.217 21.217 0 0 1-12.36 0A20.961 20.961 0 0 1 17.31 25a20.983 20.983 0 0 1 29.38 0z"></path>
  <ellipse cx="32" cy="40" fill="#4f5d75" rx="7" ry="21"></ellipse>
  <path fill="#2d3142" d="M54 40a22.01 22.01 0 0 0-22-22q-1.086 0-2.156.1a21.775 21.775 0 0 0-11.418 4.6 22.428 22.428 0 0 0-1.817 1.585A22 22 0 0 0 32 62a21.829 21.829 0 0 0 15.913-6.809A21.9 21.9 0 0 0 54 40Zm-8.658 14.875c-.224.2-.451.4-.683.592-.278.229-.564.446-.852.659a19.02 19.02 0 0 1-.724.515c-.3.2-.607.387-.916.571-.25.148-.5.3-.753.435-.322.172-.652.327-.983.481-.256.119-.51.244-.772.352-.345.143-.7.265-1.053.389-.258.09-.513.188-.775.267-.376.114-.761.2-1.144.295-.25.059-.5.13-.749.18-.058.012-.118.016-.176.027 1.512-2.114 2.635-5.473 3.343-9.34a20.089 20.089 0 0 1 6.651 4.184c-.137.132-.273.266-.414.393ZM27.31 59.43c-.382-.091-.765-.18-1.14-.294-.263-.079-.52-.178-.779-.268-.352-.123-.7-.245-1.05-.388-.262-.108-.517-.233-.774-.353-.33-.154-.659-.308-.981-.48-.255-.137-.5-.287-.752-.435-.31-.183-.618-.37-.918-.571-.245-.164-.483-.339-.722-.514a19.874 19.874 0 0 1-.854-.661c-.231-.19-.457-.388-.681-.59-.141-.127-.277-.262-.415-.393A20.053 20.053 0 0 1 24.9 50.3c.708 3.867 1.831 7.225 3.343 9.34-.058-.011-.118-.015-.176-.027-.258-.052-.506-.123-.757-.183ZM12.048 41h11.96a59.554 59.554 0 0 0 .563 7.3 22.052 22.052 0 0 0-7.705 4.744A19.855 19.855 0 0 1 12.048 41Zm5.316-14.589a22.039 22.039 0 0 0 7.349 4.347A58.917 58.917 0 0 0 24.008 39H12.049a19.748 19.748 0 0 1 5.315-12.589Zm1.8-1.721c.214-.181.432-.356.652-.527q.415-.321.845-.617c.229-.159.459-.315.694-.463.293-.186.593-.36.895-.53.241-.135.481-.27.727-.395.311-.158.629-.3.948-.442.248-.11.5-.223.747-.322.331-.131.67-.243 1.008-.356.25-.083.5-.173.752-.246.358-.1.723-.185 1.088-.268.242-.056.481-.121.726-.167a22.873 22.873 0 0 0-3.161 8.387 20.062 20.062 0 0 1-6.285-3.729c.117-.108.236-.221.36-.325Zm18.413-3.9c.252.073.5.162.747.245.34.113.68.226 1.013.357.251.1.5.212.744.321.32.142.639.286.952.444.244.124.484.259.723.393.3.171.6.345.9.532.234.148.464.3.692.462q.429.3.845.617c.221.171.44.348.655.529.123.1.241.216.362.323a20.062 20.062 0 0 1-6.286 3.729 22.873 22.873 0 0 0-3.161-8.387c.243.046.482.111.723.166.361.086.727.168 1.087.271ZM51.951 39H39.992a58.93 58.93 0 0 0-.7-8.242 22.073 22.073 0 0 0 7.35-4.347A19.748 19.748 0 0 1 51.951 39Zm-14.46 8.706a22.252 22.252 0 0 0-10.982 0A56.55 56.55 0 0 1 26.017 41h11.966a56.55 56.55 0 0 1-.492 6.706ZM26.017 39a55.616 55.616 0 0 1 .636-7.665 21.829 21.829 0 0 0 10.694 0A55.616 55.616 0 0 1 37.983 39Zm10.976-9.639a20.347 20.347 0 0 1-9.986 0C28.168 23.653 30.152 20 32 20s3.832 3.653 4.993 9.361ZM26.818 49.692a20.261 20.261 0 0 1 10.364 0C36.057 55.949 33.949 60 32 60s-4.057-4.051-5.182-10.308Zm12.611-1.4a59.554 59.554 0 0 0 .563-7.3h11.96a19.848 19.848 0 0 1-4.819 12.041 22.053 22.053 0 0 0-7.704-4.733Z"></path>
</svg>
