<?xml version="1.0" encoding="iso-8859-1"?>
<!-- Uploaded to: SVG Repo, www.svgrepo.com, Generator: SVG Repo Mixer Tools -->
<svg height="800px" width="800px" version="1.1" id="Layer_1" xmlns="http://www.w3.org/2000/svg" xmlns:xlink="http://www.w3.org/1999/xlink" 
	 viewBox="0 0 512 512" xml:space="preserve">
<path style="fill:#DFC136;" d="M255.998,8.17c-18.05,0-32.681,14.631-32.681,32.681v119.518h65.362V40.851
	C288.679,22.801,274.047,8.17,255.998,8.17z"/>
<path style="fill:#FEDC3D;" d="M417.997,204.528l27.953,212.426h-43.574l-21.537-212.426c-8.05-79.458-60.1-140.92-123.348-141.878
	C339.77,63.379,407.528,124.928,417.997,204.528z"/>
<path style="fill:#FFE777;" d="M380.839,204.528l21.537,212.426H66.046l27.953-212.426
	c10.534-80.079,79.044-141.889,161.999-141.889c0.501,0,1.002,0,1.492,0.011C320.739,63.608,372.788,125.07,380.839,204.528z"/>
<path style="fill:#BFA52E;" d="M441.614,384h-32.681l32.681,65.362h32.681v-32.681C474.295,398.706,459.589,384,441.614,384z"/>
<path style="fill:#FEDC3D;" d="M284.997,416.681l-27.768,87.138c39.805-0.436,74.491-22.234,93.13-54.457L284.997,416.681z"/>
<path style="fill:#FFE777;" d="M161.637,449.362l78.02-43.574l78.02,43.574c-12.114,32.049-34.609,53.782-60.449,54.457
	c-0.403,0.011-0.817,0.011-1.231,0.011C215.681,503.83,180.472,481.923,161.637,449.362z"/>
<path style="fill:#DFC136;" d="M441.614,416.681v32.681H37.701v-32.681c0-17.974,14.706-32.681,32.681-32.681h338.552
	C426.908,384,441.614,398.706,441.614,416.681z"/>
<path d="M448.866,376.488l-22.768-173.029c-9.245-70.282-60.803-127.396-129.248-144.087V40.851C296.85,18.325,278.525,0,255.999,0
	s-40.851,18.325-40.851,40.851v18.521c-68.447,16.689-120.004,73.804-129.25,144.087L63.13,376.488
	c-19.074,3.434-33.595,20.143-33.595,40.193v32.681c0,4.513,3.658,8.17,8.17,8.17h297.204
	c-18.966,23.81-48.039,38.128-78.911,38.128c-22.006,0-42.911-6.965-60.454-20.14c-3.609-2.709-8.73-1.98-11.439,1.626
	c-2.709,3.607-1.982,8.73,1.626,11.439C206.127,503.903,230.424,512,255.998,512c40.081,0,77.555-20.757,98.949-54.468h119.348
	c4.513,0,8.17-3.657,8.17-8.17v-32.681C482.465,396.631,467.942,379.92,448.866,376.488z M466.125,441.191H45.875v-24.511
	c0-13.515,10.994-24.511,24.506-24.511h273.19c4.513,0,8.17-3.657,8.17-8.17c0-4.513-3.657-8.17-8.17-8.17H79.698l22.402-170.239
	c8.628-65.588,57.995-118.501,122.844-131.667c3.808-0.772,6.545-4.12,6.545-8.007V40.851c0-13.515,10.995-24.511,24.511-24.511
	c13.515,0,24.511,10.996,24.511,24.511v25.066c0,3.886,2.736,7.234,6.545,8.007C351.903,87.09,401.271,140.003,409.9,205.591
	l22.399,170.239h-56.047c-4.513,0-8.17,3.657-8.17,8.17c0,4.513,3.657,8.17,8.17,8.17h65.328
	c13.551,0.002,24.544,10.997,24.544,24.511V441.191z"/>
<path d="M255.998,32.681c-4.512,0-8.17,3.657-8.17,8.17v21.787c0,4.513,3.658,8.17,8.17,8.17c4.513,0,8.17-3.657,8.17-8.17V40.851
	C264.168,36.338,260.511,32.681,255.998,32.681z"/>
<circle cx="309.063" cy="182.74" r="8.17"/>
<circle cx="352.637" cy="204.528" r="8.17"/>
<circle cx="159.363" cy="313.464" r="8.17"/>
</svg>