<?xml version="1.0" encoding="iso-8859-1"?>
<!-- Uploaded to: SVG Repo, www.svgrepo.com, Generator: SVG Repo Mixer Tools -->
<svg version="1.1" id="Layer_1" xmlns="http://www.w3.org/2000/svg" xmlns:xlink="http://www.w3.org/1999/xlink" 
	 viewBox="0 0 512 512" xml:space="preserve">
<path style="fill:#414D53;" d="M471.149,468.275l-32.681,35.555h32.681c17.974,0,32.681-14.706,32.681-32.681L471.149,468.275z"/>
<g>
	<path style="fill:#57676E;" d="M471.149,471.149v-2.874L256,449.362L8.17,471.149c0,17.974,14.706,32.681,32.681,32.681h397.617
		C456.443,503.83,471.149,489.123,471.149,471.149z"/>
	<path style="fill:#57676E;" d="M471.149,166.128h-32.681l32.681,305.021h32.681v-272.34
		C503.83,180.834,489.123,166.128,471.149,166.128z"/>
</g>
<path style="fill:#748993;" d="M438.468,166.128H40.851c-17.974,0-32.681,14.706-32.681,32.681v272.34h462.979v-272.34
	C471.149,180.834,456.443,166.128,438.468,166.128z"/>
<polygon style="fill:#FFF9CF;" points="405.787,209.702 394.894,253.277 405.787,296.851 438.468,296.851 438.468,209.702 "/>
<rect x="253.28" y="209.7" style="fill:#FFFFFF;" width="152.51" height="87.15"/>
<path style="fill:#A2B1B7;" d="M155.234,84.426h-32.681l32.681,386.723h32.681V117.106
	C187.915,99.132,173.209,84.426,155.234,84.426z"/>
<path style="fill:#C4D3D9;" d="M122.553,84.426H73.532c-17.974,0-32.681,14.706-32.681,32.681V471.15h114.383V117.106
	C155.234,99.132,140.528,84.426,122.553,84.426z"/>
<path style="fill:#FEEB5C;" d="M438.468,435.074h-16.34c-4.143,0-7.5-3.357-7.5-7.5s3.357-7.5,7.5-7.5h16.34
	c4.143,0,7.5,3.357,7.5,7.5S442.61,435.074,438.468,435.074z"/>
<path d="M471.149,157.957H196.085v-40.851c0-19.727-14.057-36.233-32.681-40.029V8.17c0-4.513-3.657-8.17-8.17-8.17
	s-8.17,3.657-8.17,8.17v68.085H73.532c-22.526,0-40.851,18.325-40.851,40.851v41.674C14.057,162.575,0,179.081,0,198.809v272.34
	C0,493.675,18.325,512,40.851,512h430.298C493.675,512,512,493.675,512,471.149v-272.34
	C512,176.283,493.675,157.957,471.149,157.957z M49.021,117.106c0-13.515,10.996-24.511,24.511-24.511h81.702
	c13.515,0,24.511,10.996,24.511,24.511v345.872H49.021V117.106z M495.66,471.149c0,13.515-10.996,24.511-24.511,24.511H40.851
	c-13.515,0-24.511-10.996-24.511-24.511v-272.34c0-10.651,6.831-19.732,16.34-23.105V471.15c0,4.513,3.657,8.17,8.17,8.17h430.298
	c4.513,0,8.17-3.657,8.17-8.17s-3.657-8.17-8.17-8.17H196.085V174.298h275.064c13.515,0,24.511,10.996,24.511,24.511L495.66,471.149
	L495.66,471.149z"/>
<path d="M438.468,201.532h-32.681c-4.513,0-8.17,3.657-8.17,8.17s3.657,8.17,8.17,8.17h24.511v70.809H261.447v-70.809h111.66
	c4.513,0,8.17-3.657,8.17-8.17s-3.657-8.17-8.17-8.17h-119.83c-4.513,0-8.17,3.657-8.17,8.17v87.149c0,4.513,3.657,8.17,8.17,8.17
	h185.191c4.513,0,8.17-3.657,8.17-8.17v-87.149C446.638,205.189,442.981,201.532,438.468,201.532z"/>
<path d="M318.638,419.404h-16.34c-4.513,0-8.17,3.657-8.17,8.17s3.657,8.17,8.17,8.17h16.34c4.513,0,8.17-3.657,8.17-8.17
	C326.809,423.061,323.152,419.404,318.638,419.404z"/>
<path d="M367.66,419.404h-16.34c-4.513,0-8.17,3.657-8.17,8.17s3.657,8.17,8.17,8.17h16.34c4.513,0,8.17-3.657,8.17-8.17
	C375.83,423.061,372.173,419.404,367.66,419.404z"/>
<path d="M269.617,419.404h-16.34c-4.513,0-8.17,3.657-8.17,8.17s3.657,8.17,8.17,8.17h16.34c4.513,0,8.17-3.657,8.17-8.17
	C277.787,423.061,274.13,419.404,269.617,419.404z"/>
<path d="M318.638,375.83h-16.34c-4.513,0-8.17,3.657-8.17,8.17s3.657,8.17,8.17,8.17h16.34c4.513,0,8.17-3.657,8.17-8.17
	C326.809,379.487,323.152,375.83,318.638,375.83z"/>
<path d="M367.66,375.83h-16.34c-4.513,0-8.17,3.657-8.17,8.17s3.657,8.17,8.17,8.17h16.34c4.513,0,8.17-3.657,8.17-8.17
	C375.83,379.487,372.173,375.83,367.66,375.83z"/>
<path d="M269.617,375.83h-16.34c-4.513,0-8.17,3.657-8.17,8.17s3.657,8.17,8.17,8.17h16.34c4.513,0,8.17-3.657,8.17-8.17
	C277.787,379.487,274.13,375.83,269.617,375.83z"/>
<path d="M318.638,332.255h-16.34c-4.513,0-8.17,3.657-8.17,8.17s3.657,8.17,8.17,8.17h16.34c4.513,0,8.17-3.657,8.17-8.17
	C326.809,335.912,323.152,332.255,318.638,332.255z"/>
<path d="M367.66,332.255h-16.34c-4.513,0-8.17,3.657-8.17,8.17s3.657,8.17,8.17,8.17h16.34c4.513,0,8.17-3.657,8.17-8.17
	C375.83,335.912,372.173,332.255,367.66,332.255z"/>
<path d="M438.468,375.83h-16.34c-4.513,0-8.17,3.657-8.17,8.17s3.657,8.17,8.17,8.17h16.34c4.513,0,8.17-3.657,8.17-8.17
	S442.981,375.83,438.468,375.83z"/>
<path d="M438.468,332.255h-16.34c-4.513,0-8.17,3.657-8.17,8.17s3.657,8.17,8.17,8.17h16.34c4.513,0,8.17-3.657,8.17-8.17
	C446.638,335.912,442.981,332.255,438.468,332.255z"/>
<path d="M269.617,332.255h-16.34c-4.513,0-8.17,3.657-8.17,8.17s3.657,8.17,8.17,8.17h16.34c4.513,0,8.17-3.657,8.17-8.17
	C277.787,335.912,274.13,332.255,269.617,332.255z"/>
</svg>