<?xml version="1.0" encoding="iso-8859-1"?>
<!-- Uploaded to: SVG Repo, www.svgrepo.com, Generator: SVG Repo Mixer Tools -->
<svg height="800px" width="800px" version="1.1" id="Layer_1" xmlns="http://www.w3.org/2000/svg" xmlns:xlink="http://www.w3.org/1999/xlink" 
	 viewBox="0 0 504.123 504.123" xml:space="preserve">
<path style="fill:#6C959E;" d="M253.787,118.959c3.757,3.757,3.757,9.83,0,13.603l0,0c-3.757,3.757-9.838,3.757-13.596,0
	l-101.1-101.116c-3.773-3.765-3.757-9.83,0-13.588l0,0c3.757-3.773,9.83-3.773,13.588-0.016L253.787,118.959z"/>
<path style="fill:#4F747A;" d="M250.336,118.959c-3.757,3.757-3.757,9.83,0,13.603l0,0c3.757,3.757,9.838,3.757,13.596,0
	l101.1-101.116c3.773-3.765,3.757-9.83,0-13.588l0,0c-3.757-3.773-9.83-3.773-13.588-0.016L250.336,118.959z"/>
<path style="fill:#08772A;" d="M329.523,162.204c0,17.4-14.108,31.508-31.508,31.508h-91.908c-17.4,0-31.508-14.108-31.508-31.508
	V146.45c0-17.4,14.108-31.508,31.508-31.508h91.908c17.4,0,31.508,14.108,31.508,31.508V162.204z"/>
<path style="fill:#03563A;" d="M329.523,171.388c0,17.4-14.108,31.508-31.508,31.508h-91.908c-17.4,0-31.508-14.108-31.508-31.508
	v-15.754c0-17.4,14.108-31.508,31.508-31.508h91.908c17.4,0,31.508,14.108,31.508,31.508V171.388z"/>
<path style="fill:#08772A;" d="M504.123,472.09c0,9.389-7.617,17.006-17.006,17.006H17.022C7.617,489.096,0,481.479,0,472.09
	V159.392c0-9.397,7.617-17.006,17.022-17.006h470.095c9.389,0,17.006,7.609,17.006,17.006V472.09z"/>
<path style="fill:#03563A;" d="M487.117,142.385c9.389,0,17.006,7.609,17.006,17.006v312.69c0,9.389-7.617,17.006-17.006,17.006
	H17.022C7.617,489.088,0,481.471,0,472.082"/>
<path style="fill:#14AF1B;" d="M389.782,416.171c0,17.4-14.108,31.508-31.508,31.508H66.828c-17.4,0-31.508-14.108-31.508-31.508
	V215.31c0-17.4,14.108-31.508,31.508-31.508h291.446c17.4,0,31.508,14.108,31.508,31.508V416.171z"/>
<path style="fill:#21D621;" d="M35.32,215.31c0-17.4,14.108-31.508,31.508-31.508h291.446c17.4,0,31.508,14.108,31.508,31.508"/>
<path style="fill:#566366;" d="M451.489,188.001c16.817,0,30.547,13.076,31.681,29.609c0.047-0.67,0.102-1.331,0.102-2.009
	c0-17.558-14.226-31.799-31.783-31.799c-17.558,0-31.807,14.241-31.807,31.799c0,0.677,0.055,1.339,0.11,2.009
	C420.927,201.076,434.672,188.001,451.489,188.001z"/>
<circle style="fill:#121C1B;" cx="451.482" cy="217.72" r="31.823"/>
<path style="fill:#283538;" d="M428.993,240.185c-12.414-12.414-12.414-32.555,0-44.969c12.43-12.414,32.555-12.414,44.985,0"/>
<path style="fill:#121C1B;" d="M453.459,203.431c0,1.087-0.882,1.969-1.969,1.969l0,0c-1.103,0-1.969-0.882-1.969-1.969v-6.845
	c0-1.095,0.866-1.969,1.969-1.969l0,0c1.087,0,1.969,0.874,1.969,1.969V203.431z"/>
<path style="fill:#65E83A;" d="M453.459,200.399c0,1.095-0.882,1.969-1.969,1.969l0,0c-1.103,0-1.969-0.874-1.969-1.969v-6.845
	c0-1.095,0.866-1.969,1.969-1.969l0,0c1.087,0,1.969,0.874,1.969,1.969V200.399z"/>
<path style="fill:#566366;" d="M438.587,354.716c7.57-7.585,19.645-7.869,27.601-0.937c-0.276-0.323-0.551-0.654-0.843-0.953
	c-7.924-7.908-20.74-7.908-28.648,0s-7.924,20.732,0,28.648c0.291,0.299,0.63,0.567,0.953,0.851
	C430.71,374.361,431.002,362.285,438.587,354.716z"/>
<circle style="fill:#121C1B;" cx="451.954" cy="368.091" r="20.259"/>
<path style="fill:#283538;" d="M451.954,388.35c-11.185,0-20.259-9.066-20.259-20.252c0.016-11.193,9.074-20.244,20.259-20.259"/>
<path style="fill:#121C1B;" d="M446.417,360.781c0.488,0.488,0.488,1.284,0,1.78l0,0c-0.488,0.488-1.292,0.488-1.788,0l-3.08-3.088
	c-0.488-0.488-0.488-1.284,0-1.78l0,0c0.488-0.488,1.292-0.488,1.772,0L446.417,360.781z"/>
<path style="fill:#65E83A;" d="M445.046,359.418c0.488,0.488,0.488,1.276,0,1.78l0,0c-0.488,0.488-1.276,0.488-1.772,0l-3.096-3.088
	c-0.488-0.488-0.488-1.292,0-1.78l0,0c0.488-0.488,1.292-0.488,1.788,0L445.046,359.418z"/>
<path style="fill:#566366;" d="M438.587,415.1c7.57-7.585,19.645-7.869,27.601-0.937c-0.276-0.323-0.551-0.654-0.843-0.953
	c-7.924-7.908-20.74-7.908-28.648,0s-7.924,20.732,0,28.648c0.291,0.299,0.63,0.567,0.953,0.851
	C430.71,434.745,431.002,422.67,438.587,415.1z"/>
<circle style="fill:#121C1B;" cx="451.954" cy="428.475" r="20.259"/>
<path style="fill:#283538;" d="M451.954,448.735c-11.185,0-20.259-9.066-20.259-20.252c0.016-11.193,9.074-20.244,20.259-20.259"/>
<path style="fill:#121C1B;" d="M446.417,421.165c0.488,0.488,0.488,1.284,0,1.78l0,0c-0.488,0.488-1.292,0.488-1.788,0l-3.08-3.088
	c-0.488-0.488-0.488-1.284,0-1.78l0,0c0.488-0.488,1.292-0.488,1.772,0L446.417,421.165z"/>
<path style="fill:#65E83A;" d="M445.046,419.803c0.488,0.488,0.488,1.276,0,1.78l0,0c-0.488,0.488-1.276,0.488-1.772,0l-3.096-3.088
	c-0.488-0.488-0.488-1.292,0-1.78l0,0c0.488-0.488,1.292-0.488,1.788,0L445.046,419.803z"/>
<g>
	<path style="fill:#08772A;" d="M487.259,268.692c0,1.906-1.536,3.45-3.45,3.45h-62.031c-1.906,0-3.45-1.536-3.45-3.45l0,0
		c0-1.906,1.536-3.45,3.45-3.45h62.031C485.723,265.249,487.259,266.785,487.259,268.692L487.259,268.692z"/>
	<path style="fill:#08772A;" d="M487.259,287.399c0,1.906-1.536,3.45-3.45,3.45h-62.031c-1.906,0-3.45-1.536-3.45-3.45l0,0
		c0-1.906,1.536-3.45,3.45-3.45h62.031C485.723,283.957,487.259,285.493,487.259,287.399L487.259,287.399z"/>
	<path style="fill:#08772A;" d="M487.259,306.107c0,1.906-1.536,3.45-3.45,3.45h-62.031c-1.906,0-3.45-1.536-3.45-3.45l0,0
		c0-1.906,1.536-3.45,3.45-3.45h62.031C485.723,302.665,487.259,304.201,487.259,306.107L487.259,306.107z"/>
	<path style="fill:#08772A;" d="M487.259,324.815c0,1.906-1.536,3.45-3.45,3.45h-62.031c-1.906,0-3.45-1.536-3.45-3.45l0,0
		c0-1.906,1.536-3.45,3.45-3.45h62.031C485.723,321.373,487.259,322.909,487.259,324.815L487.259,324.815z"/>
</g>
<path style="fill:#C63205;" d="M128.441,243.233c0,1.284-1.04,2.324-2.324,2.324H70.451c-1.276,0-2.316-1.04-2.316-2.324V213.86
	c0-1.284,1.04-2.324,2.316-2.324h55.658c1.284,0,2.324,1.04,2.324,2.324v29.373H128.441z"/>
<path style="fill:#AA2102;" d="M126.117,211.537c1.284,0,2.324,1.04,2.324,2.324v29.373c0,1.284-1.04,2.324-2.324,2.324H70.451
	c-1.276,0-2.316-1.04-2.316-2.324"/>
<g>
	<path style="fill:#FFFFFF;" d="M88.411,218.539H75.524c-0.41,0-0.74,0.339-0.74,0.74v18.881c0,0.41,0.331,0.74,0.74,0.74h2.757
		c0.41,0,0.74-0.331,0.74-0.74v-7.916h4.647c0.417,0,0.74-0.339,0.74-0.74v-2.599c0-0.402-0.323-0.74-0.74-0.74h-4.647v-3.505h9.389
		c0.41,0,0.748-0.331,0.748-0.74v-2.647C89.151,218.878,88.812,218.539,88.411,218.539z"/>
	<path style="fill:#FFFFFF;" d="M103.96,218.65c-0.118-0.276-0.386-0.457-0.677-0.457c-0.307,0-0.575,0.173-0.693,0.457
		l-6.782,16.36c-0.142-0.165-0.347-0.284-0.567-0.284h-4.498V219.28c0-0.402-0.323-0.74-0.733-0.74h-2.757
		c-0.41,0-0.733,0.339-0.733,0.74v18.881c0,0.41,0.323,0.74,0.733,0.74h7.987l0.024-0.008l0.039,0.008h2.899
		c0.307,0,0.575-0.173,0.693-0.457l1.757-4.269h5.27l1.757,4.269c0.11,0.276,0.386,0.457,0.67,0.457h2.922h0.016
		c0.41,0,0.74-0.331,0.74-0.74c0-0.15-0.047-0.299-0.126-0.41L103.96,218.65z M103.282,227.401l1.119,2.875h-2.245L103.282,227.401z
		"/>
	<path style="fill:#FFFFFF;" d="M121.053,218.193h-17.25c-0.41,0-0.74,0.331-0.74,0.748v2.639c0,0.41,0.331,0.74,0.74,0.74h9.098
		v15.738c0,0.41,0.323,0.74,0.74,0.74h2.765c0.394,0,0.725-0.331,0.725-0.74V222.32h3.931c0.41,0,0.74-0.331,0.74-0.74v-2.639
		C121.793,218.524,121.462,218.193,121.053,218.193z"/>
</g>
<path style="fill:#FFE600;" d="M100.32,218.453c-0.047-0.071-0.142-0.118-0.213-0.118h-0.929c-0.11,0-0.197,0.071-0.244,0.165
	l-0.772,1.969l-0.788-1.969c-0.024-0.102-0.134-0.165-0.236-0.165h-0.929h-0.039c-0.008,0-0.016,0-0.016,0h-3.151
	c-0.158,0-0.26,0.118-0.26,0.26v0.89c0,0.142,0.11,0.26,0.26,0.26h0.851v3.387c0,0.142,0.126,0.26,0.26,0.26h0.929
	c0.15,0,0.26-0.126,0.26-0.26v-3.387h0.835c0.095,0,0.165-0.047,0.221-0.126l1.544,3.726c0.039,0.095,0.142,0.165,0.244,0.165
	s0.189-0.071,0.236-0.165l1.946-4.647C100.384,218.626,100.376,218.531,100.32,218.453z"/>
<path style="fill:#C63205;" d="M308.665,219.634c-47.805-18.55-108.922-4.663-152.899,39.322
	c-43.977,43.969-57.872,105.094-39.322,152.891L308.665,219.634z"/>
<path style="fill:#AA2102;" d="M116.445,411.863c47.813,18.542,108.922,4.647,152.891-39.337
	c43.985-43.969,57.88-105.094,39.322-152.891L116.445,411.863z"/>
<g>
	<path style="fill:#D8D6CB;" d="M178.444,418.527c10.752-1.418,21.52-4.08,32.122-8.019l-92.782-92.782
		c-3.946,10.587-6.632,21.339-8.058,32.091L178.444,418.527z"/>
	<path style="fill:#D8D6CB;" d="M307.31,313.756c3.938-10.587,6.617-21.37,8.027-32.122l-68.718-68.71
		c-10.728,1.434-21.496,4.104-32.091,8.042L307.31,313.756z"/>
</g>
<g>
	<path style="fill:#BFBDAA;" d="M210.566,410.508l-92.782-92.782c-3.946,10.587-6.632,21.339-8.058,32.091"/>
	<path style="fill:#BFBDAA;" d="M315.329,281.633l-68.718-68.71c-10.728,1.434-21.496,4.104-32.091,8.042"/>
</g>
<path style="fill:#D8D6CB;" d="M214.237,271.11c-3.639,3.616-3.639,9.492,0,13.123l7.704,7.712l-10.027,10.027l-7.712-7.712
	c-3.631-3.615-9.5-3.615-13.123,0c-3.631,3.631-3.631,9.507,0,13.139l7.712,7.696l-10.035,10.043l-7.704-7.719
	c-3.631-3.616-9.5-3.616-13.123,0c-3.616,3.631-3.616,9.507,0,13.139l29.814,29.814c3.631,3.631,9.507,3.631,13.123,0
	c3.639-3.616,3.639-9.492,0-13.123l-7.704-7.712l10.035-10.027l7.712,7.712c3.631,3.631,9.492,3.631,13.123,0
	c3.616-3.616,3.616-9.492,0-13.123l-7.712-7.712l10.027-10.027l7.719,7.712c3.608,3.615,9.484,3.615,13.107,0
	c3.631-3.631,3.631-9.507,0-13.123l-29.83-29.83C223.736,267.479,217.86,267.479,214.237,271.11z"/>
<g>
	<circle style="fill:#E07C0E;" cx="151.182" cy="305.863" r="4.364"/>
	<circle style="fill:#E07C0E;" cx="164.045" cy="292.968" r="4.372"/>
	<circle style="fill:#E07C0E;" cx="176.916" cy="280.105" r="4.364"/>
	<circle style="fill:#E07C0E;" cx="189.779" cy="267.242" r="4.364"/>
	<circle style="fill:#E07C0E;" cx="202.673" cy="254.371" r="4.364"/>
</g>
<g>
	<circle style="fill:#EF8A11;" cx="222.452" cy="377.149" r="4.364"/>
	<circle style="fill:#EF8A11;" cx="235.323" cy="364.247" r="4.372"/>
	<path style="fill:#EF8A11;" d="M251.274,348.296c1.709,1.709,1.709,4.474,0.016,6.168c-1.725,1.709-4.474,1.709-6.199,0
		c-1.694-1.694-1.694-4.458,0-6.168C246.816,346.587,249.572,346.587,251.274,348.296z"/>
	<circle style="fill:#EF8A11;" cx="261.057" cy="338.521" r="4.364"/>
	<circle style="fill:#EF8A11;" cx="273.881" cy="325.65" r="4.372"/>
</g>
</svg>