<?xml version="1.0" encoding="iso-8859-1"?>
<!-- Uploaded to: SVG Repo, www.svgrepo.com, Generator: SVG Repo Mixer Tools -->
<svg height="800px" width="800px" version="1.1" id="Layer_1" xmlns="http://www.w3.org/2000/svg" xmlns:xlink="http://www.w3.org/1999/xlink" 
	 viewBox="0 0 504.123 504.123" xml:space="preserve">
<path style="fill:#6C959E;" d="M253.787,118.959c3.757,3.757,3.757,9.83,0,13.603l0,0c-3.757,3.757-9.838,3.757-13.596,0
	l-101.1-101.116c-3.773-3.765-3.757-9.83,0-13.588l0,0c3.757-3.773,9.83-3.773,13.588-0.016L253.787,118.959z"/>
<path style="fill:#4F747A;" d="M250.336,118.959c-3.757,3.757-3.757,9.83,0,13.603l0,0c3.757,3.757,9.838,3.757,13.596,0
	l101.1-101.116c3.773-3.765,3.757-9.83,0-13.588l0,0c-3.757-3.773-9.83-3.773-13.588-0.016L250.336,118.959z"/>
<path style="fill:#FFCE00;" d="M329.523,162.204c0,17.4-14.108,31.508-31.508,31.508h-91.908c-17.4,0-31.508-14.108-31.508-31.508
	V146.45c0-17.4,14.108-31.508,31.508-31.508h91.908c17.4,0,31.508,14.108,31.508,31.508V162.204z"/>
<path style="fill:#FFA300;" d="M329.523,171.388c0,17.4-14.108,31.508-31.508,31.508h-91.908c-17.4,0-31.508-14.108-31.508-31.508
	v-15.754c0-17.408,14.108-31.508,31.508-31.508h91.908c17.4,0,31.508,14.1,31.508,31.508V171.388z"/>
<path style="fill:#C63205;" d="M504.123,472.09c0,9.389-7.617,17.006-17.006,17.006H17.022C7.617,489.096,0,481.479,0,472.09
	V159.392c0-9.397,7.617-17.006,17.022-17.006h470.095c9.389,0,17.006,7.609,17.006,17.006V472.09z"/>
<path style="fill:#AA2102;" d="M487.117,142.385c9.389,0,17.006,7.609,17.006,17.006v312.69c0,9.389-7.617,17.006-17.006,17.006
	H17.022C7.617,489.088,0,481.471,0,472.082"/>
<path style="fill:#9EBEC6;" d="M389.782,416.171c0,17.4-14.108,31.508-31.508,31.508H66.828c-17.4,0-31.508-14.108-31.508-31.508
	V215.31c0-17.4,14.108-31.508,31.508-31.508h291.446c17.4,0,31.508,14.108,31.508,31.508V416.171z"/>
<g>
	<path style="fill:#B9D4DB;" d="M35.32,215.31c0-17.4,14.108-31.508,31.508-31.508h291.446c17.4,0,31.508,14.108,31.508,31.508"/>
</g>
<path style="fill:#566366;" d="M451.482,188.001c16.825,0,30.555,13.076,31.689,29.609c0.047-0.67,0.102-1.331,0.102-2.009
	c0-17.558-14.226-31.799-31.791-31.799c-17.558,0-31.799,14.241-31.799,31.799c0,0.677,0.063,1.339,0.11,2.009
	C420.927,201.076,434.672,188.001,451.482,188.001z"/>
<circle style="fill:#121C1B;" cx="451.482" cy="217.72" r="31.823"/>
<path style="fill:#283538;" d="M428.993,240.185c-12.414-12.414-12.414-32.555,0-44.969c12.43-12.414,32.555-12.414,44.985,0"/>
<path style="fill:#121C1B;" d="M453.451,203.431c0,1.087-0.874,1.969-1.969,1.969l0,0c-1.095,0-1.969-0.882-1.969-1.969v-6.845
	c0-1.095,0.874-1.969,1.969-1.969l0,0c1.095,0,1.969,0.874,1.969,1.969V203.431z"/>
<path style="fill:#65E83A;" d="M453.451,200.399c0,1.095-0.874,1.969-1.969,1.969l0,0c-1.095,0-1.969-0.874-1.969-1.969v-6.845
	c0-1.095,0.874-1.969,1.969-1.969l0,0c1.095,0,1.969,0.874,1.969,1.969V200.399z"/>
<path style="fill:#566366;" d="M438.587,354.716c7.57-7.585,19.645-7.869,27.601-0.937c-0.276-0.323-0.551-0.654-0.843-0.953
	c-7.924-7.908-20.74-7.908-28.648,0s-7.924,20.732,0,28.648c0.291,0.299,0.63,0.567,0.953,0.851
	C430.71,374.361,431.002,362.285,438.587,354.716z"/>
<circle style="fill:#121C1B;" cx="451.954" cy="368.091" r="20.259"/>
<path style="fill:#283538;" d="M451.954,388.35c-11.185,0-20.259-9.066-20.259-20.252c0.016-11.193,9.074-20.244,20.259-20.259"/>
<path style="fill:#121C1B;" d="M446.417,360.781c0.488,0.488,0.488,1.284,0,1.78l0,0c-0.488,0.488-1.292,0.488-1.788,0l-3.08-3.088
	c-0.488-0.488-0.488-1.284,0-1.78l0,0c0.488-0.488,1.292-0.488,1.772,0L446.417,360.781z"/>
<path style="fill:#65E83A;" d="M445.046,359.418c0.488,0.488,0.488,1.276,0,1.78l0,0c-0.488,0.488-1.276,0.488-1.772,0l-3.096-3.088
	c-0.488-0.488-0.488-1.292,0-1.78l0,0c0.488-0.488,1.292-0.488,1.788,0L445.046,359.418z"/>
<path style="fill:#566366;" d="M438.587,415.1c7.57-7.585,19.645-7.869,27.601-0.937c-0.276-0.323-0.551-0.654-0.843-0.953
	c-7.924-7.908-20.74-7.908-28.648,0s-7.924,20.732,0,28.648c0.291,0.299,0.63,0.567,0.953,0.851
	C430.71,434.745,431.002,422.67,438.587,415.1z"/>
<circle style="fill:#121C1B;" cx="451.954" cy="428.475" r="20.259"/>
<path style="fill:#283538;" d="M451.954,448.735c-11.185,0-20.259-9.066-20.259-20.252c0.016-11.193,9.074-20.244,20.259-20.259"/>
<path style="fill:#121C1B;" d="M446.417,421.165c0.488,0.488,0.488,1.284,0,1.78l0,0c-0.488,0.488-1.292,0.488-1.788,0l-3.08-3.088
	c-0.488-0.488-0.488-1.284,0-1.78l0,0c0.488-0.488,1.292-0.488,1.772,0L446.417,421.165z"/>
<path style="fill:#65E83A;" d="M445.046,419.803c0.488,0.488,0.488,1.276,0,1.78l0,0c-0.488,0.488-1.276,0.488-1.772,0l-3.096-3.088
	c-0.488-0.488-0.488-1.292,0-1.78l0,0c0.488-0.488,1.292-0.488,1.788,0L445.046,419.803z"/>
<g>
	<path style="fill:#DD510B;" d="M487.259,268.692c0,1.906-1.536,3.45-3.45,3.45h-62.031c-1.906,0-3.45-1.536-3.45-3.45l0,0
		c0-1.906,1.536-3.45,3.45-3.45h62.031C485.723,265.249,487.259,266.785,487.259,268.692L487.259,268.692z"/>
	<path style="fill:#DD510B;" d="M487.259,287.399c0,1.906-1.536,3.45-3.45,3.45h-62.031c-1.906,0-3.45-1.536-3.45-3.45l0,0
		c0-1.906,1.536-3.45,3.45-3.45h62.031C485.723,283.957,487.259,285.493,487.259,287.399L487.259,287.399z"/>
	<path style="fill:#DD510B;" d="M487.259,306.107c0,1.906-1.536,3.45-3.45,3.45h-62.031c-1.906,0-3.45-1.536-3.45-3.45l0,0
		c0-1.906,1.536-3.45,3.45-3.45h62.031C485.723,302.665,487.259,304.201,487.259,306.107L487.259,306.107z"/>
	<path style="fill:#DD510B;" d="M487.259,324.815c0,1.906-1.536,3.45-3.45,3.45h-62.031c-1.906,0-3.45-1.536-3.45-3.45l0,0
		c0-1.906,1.536-3.45,3.45-3.45h62.031C485.723,321.373,487.259,322.909,487.259,324.815L487.259,324.815z"/>
</g>
<g>
	<path style="fill:#C63205;" d="M132.97,272.677h-10.894c-1.465,0-2.662,1.189-2.662,2.678v42.512l-35.864-44.205
		c-0.52-0.614-1.292-0.985-2.095-0.985H70.782c-1.481,0-2.647,1.189-2.647,2.678v79.423c0,1.473,1.166,2.67,2.647,2.67h10.91
		c1.481,0,2.678-1.197,2.678-2.67v-52.571l46.56,55.627c0.52,0.622,1.268,0.961,2.04,0.961c0.307,0,0.614-0.039,0.906-0.158
		c1.063-0.386,1.757-1.394,1.757-2.513v-80.77C135.633,273.875,134.435,272.677,132.97,272.677z"/>
	<path style="fill:#C63205;" d="M196.403,340.758h-32.736v-21.536h30.444c1.489,0,2.694-1.197,2.694-2.686v-10.894
		c0-1.473-1.197-2.662-2.694-2.662h-30.444v-13.832h32.051c1.473,0,2.67-1.197,2.67-2.678v-11.114c0-1.481-1.197-2.678-2.67-2.678
		h-46.301c-1.465,0-2.662,1.189-2.662,2.678v79.423c0,1.473,1.197,2.67,2.662,2.67h46.986c1.465,0,2.662-1.197,2.662-2.67v-11.343
		C199.058,341.955,197.86,340.758,196.403,340.758z"/>
	<path style="fill:#C63205;" d="M290.777,272.677h-12.13c-1.079,0-2.056,0.662-2.481,1.67l-18.054,44.418l-18.062-44.418
		c-0.41-1.008-1.386-1.67-2.458-1.67h-12.154c-0.882,0-1.725,0.449-2.213,1.174c-0.504,0.74-0.591,1.67-0.252,2.489l15.36,38.235
		l-1.741,4.222l-18.109-44.465c-0.402-1.008-1.378-1.67-2.458-1.67h-12.154c-0.874,0-1.725,0.449-2.19,1.174
		c-0.496,0.74-0.607,1.67-0.268,2.497l32.673,80.778c0.402,1.016,1.378,1.67,2.458,1.67l0,0c1.079,0,2.08-0.654,2.489-1.662
		l8.302-20.472l8.302,20.472c0.417,1.008,1.386,1.662,2.473,1.662l0,0c1.079,0,2.079-0.654,2.473-1.67l32.658-80.778
		c0.339-0.827,0.244-1.764-0.244-2.497C292.502,273.126,291.659,272.677,290.777,272.677z"/>
	<path style="fill:#C63205;" d="M331.847,306.619h-11.689c-4.923,0-8.893-4.001-8.893-8.909s3.97-8.909,8.893-8.909h23.938
		c1.465,0,2.67-1.197,2.67-2.67v-10.776c0-1.481-1.205-2.678-2.67-2.678h-25.301c-13.603,0-24.671,11.122-24.671,24.789
		c0,13.745,11.296,25.372,24.671,25.372h11.02c5.443,0,9.57,3.875,9.57,9.027c0,5.073-4.12,8.893-9.57,8.893h-28.719
		c-1.465,0-2.662,1.197-2.662,2.678v11.343c0,1.473,1.197,2.67,2.662,2.67h30.751c13.848,0,25.12-11.532,25.12-25.695
		C356.966,317.875,345.695,306.619,331.847,306.619z"/>
	<path style="fill:#C63205;" d="M128.441,243.233c0,1.284-1.04,2.324-2.324,2.324H70.451c-1.276,0-2.316-1.04-2.316-2.324V213.86
		c0-1.284,1.04-2.324,2.316-2.324h55.658c1.284,0,2.324,1.04,2.324,2.324v29.373H128.441z"/>
</g>
<path style="fill:#AA2102;" d="M126.117,211.537c1.284,0,2.324,1.04,2.324,2.324v29.373c0,1.284-1.04,2.324-2.324,2.324H70.451
	c-1.276,0-2.316-1.04-2.316-2.324"/>
<g>
	<path style="fill:#FFFFFF;" d="M88.411,218.539H75.524c-0.41,0-0.74,0.339-0.74,0.74v18.881c0,0.41,0.331,0.74,0.74,0.74h2.757
		c0.41,0,0.74-0.331,0.74-0.74v-7.916h4.655c0.41,0,0.733-0.339,0.733-0.74v-2.599c0-0.402-0.323-0.74-0.733-0.74h-4.655v-3.505
		h9.389c0.41,0,0.74-0.331,0.74-0.74v-2.647C89.143,218.878,88.812,218.539,88.411,218.539z"/>
	<path style="fill:#FFFFFF;" d="M103.96,218.65c-0.118-0.276-0.386-0.457-0.677-0.457c-0.307,0-0.575,0.173-0.693,0.457
		l-6.782,16.36c-0.142-0.165-0.347-0.284-0.567-0.284h-4.498V219.28c0-0.402-0.323-0.74-0.733-0.74h-2.757
		c-0.41,0-0.74,0.339-0.74,0.74v18.881c0,0.41,0.331,0.74,0.74,0.74h7.987l0.024-0.008l0.039,0.008h2.899
		c0.307,0,0.575-0.173,0.693-0.457l1.757-4.269h5.27l1.757,4.269c0.11,0.276,0.386,0.457,0.677,0.457h2.914h0.016
		c0.41,0,0.74-0.331,0.74-0.74c0-0.15-0.047-0.299-0.126-0.41L103.96,218.65z M103.282,227.401l1.126,2.875h-2.253L103.282,227.401z
		"/>
	<path style="fill:#FFFFFF;" d="M121.053,218.193h-17.25c-0.41,0-0.74,0.331-0.74,0.748v2.639c0,0.41,0.331,0.74,0.74,0.74h9.098
		v15.738c0,0.41,0.323,0.74,0.74,0.74h2.765c0.394,0,0.725-0.331,0.725-0.74V222.32h3.931c0.41,0,0.74-0.331,0.74-0.74v-2.639
		C121.793,218.524,121.462,218.193,121.053,218.193z"/>
</g>
<path style="fill:#FFE600;" d="M100.32,218.453c-0.047-0.071-0.142-0.118-0.213-0.118h-0.929c-0.11,0-0.197,0.071-0.244,0.165
	l-0.772,1.969l-0.788-1.969c-0.032-0.102-0.134-0.165-0.236-0.165h-0.929h-0.039c-0.008,0-0.016,0-0.016,0h-3.151
	c-0.15,0-0.26,0.118-0.26,0.26v0.89c0,0.142,0.118,0.26,0.26,0.26h0.851v3.387c0,0.142,0.126,0.26,0.26,0.26h0.929
	c0.15,0,0.26-0.126,0.26-0.26v-3.387h0.835c0.095,0,0.165-0.047,0.213-0.126l1.552,3.726c0.039,0.095,0.142,0.165,0.244,0.165
	s0.189-0.071,0.236-0.165l1.946-4.647C100.384,218.626,100.376,218.531,100.32,218.453z"/>
</svg>