<?xml version="1.0" encoding="iso-8859-1"?>
<!-- Uploaded to: SVG Repo, www.svgrepo.com, Generator: SVG Repo Mixer Tools -->
<svg height="800px" width="800px" version="1.1" id="Layer_1" xmlns="http://www.w3.org/2000/svg" xmlns:xlink="http://www.w3.org/1999/xlink" 
	 viewBox="0 0 504.123 504.123" xml:space="preserve">
<path style="fill:#6C959E;" d="M253.787,118.959c3.757,3.757,3.757,9.83,0,13.603l0,0c-3.757,3.757-9.838,3.757-13.596,0
	l-101.1-101.116c-3.773-3.765-3.757-9.83,0-13.588l0,0c3.757-3.773,9.83-3.773,13.588-0.016L253.787,118.959z"/>
<path style="fill:#4F747A;" d="M250.336,118.959c-3.757,3.757-3.757,9.83,0,13.603l0,0c3.757,3.757,9.838,3.757,13.596,0
	l101.1-101.116c3.773-3.765,3.757-9.83,0-13.588l0,0c-3.757-3.773-9.83-3.773-13.588-0.016L250.336,118.959z"/>
<path style="fill:#105FA0;" d="M329.523,162.204c0,17.4-14.108,31.508-31.508,31.508h-91.908c-17.4,0-31.508-14.108-31.508-31.508
	V146.45c0-17.4,14.108-31.508,31.508-31.508h91.908c17.4,0,31.508,14.108,31.508,31.508V162.204z"/>
<path style="fill:#093A56;" d="M329.523,171.388c0,17.4-14.108,31.508-31.508,31.508h-91.908c-17.4,0-31.508-14.108-31.508-31.508
	v-15.754c0-17.4,14.108-31.508,31.508-31.508h91.908c17.4,0,31.508,14.108,31.508,31.508V171.388z"/>
<path style="fill:#105FA0;" d="M504.123,472.09c0,9.389-7.617,17.006-17.006,17.006H17.022C7.617,489.096,0,481.479,0,472.09
	V159.392c0-9.397,7.617-17.006,17.022-17.006h470.095c9.389,0,17.006,7.609,17.006,17.006V472.09z"/>
<path style="fill:#093A56;" d="M487.117,142.385c9.389,0,17.006,7.609,17.006,17.006v312.69c0,9.389-7.617,17.006-17.006,17.006
	H17.022C7.617,489.088,0,481.471,0,472.082"/>
<path style="fill:#0DA1CE;" d="M389.782,416.171c0,17.4-14.108,31.508-31.508,31.508H66.828c-17.4,0-31.508-14.108-31.508-31.508
	V215.31c0-17.4,14.108-31.508,31.508-31.508h291.446c17.4,0,31.508,14.108,31.508,31.508V416.171z"/>
<path style="fill:#11C1EA;" d="M35.32,215.31c0-17.4,14.108-31.508,31.508-31.508h291.446c17.4,0,31.508,14.108,31.508,31.508"/>
<path style="fill:#566366;" d="M451.489,188.001c16.817,0,30.547,13.076,31.681,29.609c0.047-0.67,0.102-1.331,0.102-2.009
	c0-17.558-14.226-31.799-31.783-31.799c-17.566,0-31.807,14.241-31.807,31.799c0,0.677,0.055,1.339,0.11,2.009
	C420.927,201.076,434.672,188.001,451.489,188.001z"/>
<circle style="fill:#121C1B;" cx="451.482" cy="217.72" r="31.823"/>
<path style="fill:#283538;" d="M428.993,240.185c-12.414-12.414-12.414-32.555,0-44.969c12.43-12.414,32.555-12.414,44.985,0"/>
<path style="fill:#121C1B;" d="M453.459,203.431c0,1.087-0.882,1.969-1.969,1.969l0,0c-1.103,0-1.969-0.882-1.969-1.969v-6.845
	c0-1.095,0.866-1.969,1.969-1.969l0,0c1.087,0,1.969,0.874,1.969,1.969V203.431z"/>
<path style="fill:#105FA0;" d="M453.459,200.399c0,1.095-0.882,1.969-1.969,1.969l0,0c-1.103,0-1.969-0.874-1.969-1.969v-6.845
	c0-1.095,0.866-1.969,1.969-1.969l0,0c1.087,0,1.969,0.874,1.969,1.969V200.399z"/>
<path style="fill:#566366;" d="M438.587,354.716c7.57-7.585,19.645-7.869,27.601-0.937c-0.276-0.323-0.551-0.654-0.843-0.953
	c-7.924-7.908-20.74-7.908-28.648,0s-7.924,20.732,0,28.648c0.291,0.299,0.63,0.567,0.953,0.851
	C430.71,374.361,431.002,362.285,438.587,354.716z"/>
<circle style="fill:#121C1B;" cx="451.954" cy="368.091" r="20.259"/>
<path style="fill:#283538;" d="M451.954,388.35c-11.185,0-20.259-9.066-20.259-20.252c0.016-11.193,9.074-20.244,20.259-20.259"/>
<path style="fill:#121C1B;" d="M446.417,360.781c0.488,0.488,0.488,1.284,0,1.78l0,0c-0.488,0.488-1.292,0.488-1.788,0l-3.08-3.088
	c-0.488-0.488-0.488-1.284,0-1.78l0,0c0.488-0.488,1.292-0.488,1.772,0L446.417,360.781z"/>
<path style="fill:#105FA0;" d="M445.046,359.418c0.488,0.488,0.488,1.276,0,1.78l0,0c-0.488,0.488-1.276,0.488-1.772,0l-3.096-3.088
	c-0.488-0.488-0.488-1.292,0-1.78l0,0c0.488-0.488,1.292-0.488,1.788,0L445.046,359.418z"/>
<path style="fill:#566366;" d="M438.587,415.1c7.57-7.585,19.645-7.869,27.601-0.937c-0.276-0.323-0.551-0.654-0.843-0.953
	c-7.924-7.908-20.74-7.908-28.648,0s-7.924,20.732,0,28.648c0.291,0.299,0.63,0.567,0.953,0.851
	C430.71,434.745,431.002,422.67,438.587,415.1z"/>
<circle style="fill:#121C1B;" cx="451.954" cy="428.475" r="20.259"/>
<path style="fill:#283538;" d="M451.954,448.735c-11.185,0-20.259-9.066-20.259-20.252c0.016-11.193,9.074-20.244,20.259-20.259"/>
<path style="fill:#121C1B;" d="M446.417,421.165c0.488,0.488,0.488,1.284,0,1.78l0,0c-0.488,0.488-1.292,0.488-1.788,0l-3.08-3.088
	c-0.488-0.488-0.488-1.284,0-1.78l0,0c0.488-0.488,1.292-0.488,1.772,0L446.417,421.165z"/>
<g>
	<path style="fill:#105FA0;" d="M445.046,419.803c0.488,0.488,0.488,1.276,0,1.78l0,0c-0.488,0.488-1.276,0.488-1.772,0
		l-3.096-3.088c-0.488-0.488-0.488-1.292,0-1.78l0,0c0.488-0.488,1.292-0.488,1.788,0L445.046,419.803z"/>
	<path style="fill:#105FA0;" d="M487.259,268.692c0,1.906-1.536,3.45-3.45,3.45h-62.031c-1.906,0-3.45-1.536-3.45-3.45l0,0
		c0-1.906,1.536-3.45,3.45-3.45h62.031C485.723,265.249,487.259,266.785,487.259,268.692L487.259,268.692z"/>
	<path style="fill:#105FA0;" d="M487.259,287.399c0,1.906-1.536,3.45-3.45,3.45h-62.031c-1.906,0-3.45-1.536-3.45-3.45l0,0
		c0-1.906,1.536-3.45,3.45-3.45h62.031C485.723,283.957,487.259,285.493,487.259,287.399L487.259,287.399z"/>
	<path style="fill:#105FA0;" d="M487.259,306.107c0,1.906-1.536,3.45-3.45,3.45h-62.031c-1.906,0-3.45-1.536-3.45-3.45l0,0
		c0-1.906,1.536-3.45,3.45-3.45h62.031C485.723,302.665,487.259,304.201,487.259,306.107L487.259,306.107z"/>
	<path style="fill:#105FA0;" d="M487.259,324.815c0,1.906-1.536,3.45-3.45,3.45h-62.031c-1.906,0-3.45-1.536-3.45-3.45l0,0
		c0-1.906,1.536-3.45,3.45-3.45h62.031C485.723,321.373,487.259,322.909,487.259,324.815L487.259,324.815z"/>
</g>
<path style="fill:#C63205;" d="M128.441,243.233c0,1.284-1.04,2.324-2.324,2.324H70.451c-1.276,0-2.316-1.04-2.316-2.324V213.86
	c0-1.284,1.04-2.324,2.316-2.324h55.658c1.284,0,2.324,1.04,2.324,2.324v29.373H128.441z"/>
<path style="fill:#AA2102;" d="M126.117,211.537c1.284,0,2.324,1.04,2.324,2.324v29.373c0,1.284-1.04,2.324-2.324,2.324H70.451
	c-1.276,0-2.316-1.04-2.316-2.324"/>
<g>
	<path style="fill:#FFFFFF;" d="M88.411,218.539H75.524c-0.41,0-0.74,0.339-0.74,0.74v18.881c0,0.41,0.331,0.74,0.74,0.74h2.757
		c0.41,0,0.74-0.331,0.74-0.74v-7.916h4.647c0.417,0,0.74-0.339,0.74-0.74v-2.599c0-0.402-0.323-0.74-0.74-0.74h-4.647v-3.505h9.389
		c0.41,0,0.748-0.331,0.748-0.74v-2.647C89.151,218.878,88.812,218.539,88.411,218.539z"/>
	<path style="fill:#FFFFFF;" d="M103.96,218.65c-0.118-0.276-0.378-0.457-0.677-0.457c-0.307,0-0.575,0.173-0.693,0.457
		l-6.782,16.36c-0.142-0.165-0.347-0.284-0.567-0.284h-4.498V219.28c0-0.402-0.323-0.74-0.733-0.74h-2.757
		c-0.41,0-0.733,0.339-0.733,0.74v18.881c0,0.41,0.323,0.74,0.733,0.74h7.987l0.024-0.008l0.039,0.008h2.899
		c0.307,0,0.575-0.173,0.693-0.457l1.757-4.269h5.27l1.757,4.269c0.11,0.276,0.386,0.457,0.67,0.457h2.922h0.016
		c0.41,0,0.74-0.331,0.74-0.74c0-0.15-0.047-0.299-0.126-0.41L103.96,218.65z M103.282,227.401l1.119,2.875h-2.245L103.282,227.401z
		"/>
	<path style="fill:#FFFFFF;" d="M121.053,218.193h-17.25c-0.41,0-0.74,0.331-0.74,0.748v2.639c0,0.41,0.331,0.74,0.74,0.74h9.098
		v15.738c0,0.41,0.323,0.74,0.74,0.74h2.765c0.394,0,0.725-0.331,0.725-0.74V222.32h3.931c0.41,0,0.74-0.331,0.74-0.74v-2.639
		C121.793,218.524,121.462,218.193,121.053,218.193z"/>
</g>
<path style="fill:#FFE600;" d="M100.32,218.453c-0.047-0.071-0.142-0.118-0.213-0.118h-0.929c-0.11,0-0.197,0.071-0.244,0.165
	l-0.772,1.969l-0.788-1.969c-0.024-0.102-0.134-0.165-0.236-0.165h-0.929h-0.039c-0.008,0-0.016,0-0.016,0h-3.151
	c-0.158,0-0.26,0.118-0.26,0.26v0.89c0,0.142,0.11,0.26,0.26,0.26h0.851v3.387c0,0.142,0.126,0.26,0.26,0.26h0.929
	c0.15,0,0.26-0.126,0.26-0.26v-3.387h0.835c0.095,0,0.165-0.047,0.221-0.126l1.544,3.726c0.039,0.095,0.142,0.165,0.244,0.165
	s0.189-0.071,0.236-0.165l1.946-4.647C100.384,218.626,100.376,218.531,100.32,218.453z"/>
<circle style="fill:#105FA0;" cx="262.632" cy="312.795" r="104.361"/>
<path style="fill:#093A56;" d="M188.833,239.027c40.763-40.763,106.835-40.763,147.598,0c40.755,40.739,40.755,106.827,0,147.582"/>
<path style="fill:#5EE0EA;" d="M230.305,390.422c0,2.048-1.741,3.678-3.875,3.678c-2.15,0-3.891-1.631-3.891-3.678
	c0-2.024,1.741-8.192,3.891-8.192C228.573,382.23,230.305,388.405,230.305,390.422z"/>
<path style="fill:#30B9D8;" d="M226.43,382.23c2.135,0,3.875,6.168,3.875,8.192c0,2.048-1.741,3.678-3.875,3.678"/>
<path style="fill:#5EE0EA;" d="M248.06,390.422c0,2.048-1.733,3.678-3.891,3.678c-2.135,0-3.875-1.631-3.875-3.678
	c0-2.024,1.749-8.192,3.875-8.192C246.327,382.23,248.06,388.405,248.06,390.422z"/>
<path style="fill:#30B9D8;" d="M244.169,382.23c2.158,0,3.891,6.168,3.891,8.192c0,2.048-1.733,3.678-3.891,3.678"/>
<path style="fill:#5EE0EA;" d="M265.83,390.422c0,2.048-1.741,3.678-3.891,3.678c-2.143,0-3.883-1.631-3.883-3.678
	c0-2.024,1.741-8.192,3.883-8.192C264.09,382.23,265.83,388.405,265.83,390.422z"/>
<path style="fill:#30B9D8;" d="M261.939,382.23c2.15,0,3.891,6.168,3.891,8.192c0,2.048-1.741,3.678-3.891,3.678"/>
<path style="fill:#5EE0EA;" d="M283.569,390.422c0,2.048-1.725,3.678-3.875,3.678c-2.135,0-3.875-1.631-3.875-3.678
	c0-2.024,1.741-8.192,3.875-8.192C281.844,382.23,283.569,388.405,283.569,390.422z"/>
<path style="fill:#30B9D8;" d="M279.694,382.23c2.15,0,3.875,6.168,3.875,8.192c0,2.048-1.725,3.678-3.875,3.678"/>
<path style="fill:#5EE0EA;" d="M301.34,390.422c0,2.048-1.741,3.678-3.891,3.678c-2.135,0-3.875-1.631-3.875-3.678
	c0-2.024,1.741-8.192,3.875-8.192C299.599,382.23,301.34,388.405,301.34,390.422z"/>
<path style="fill:#30B9D8;" d="M297.448,382.23c2.15,0,3.891,6.168,3.891,8.192c0,2.048-1.741,3.678-3.891,3.678"/>
<path style="fill:#5EE0EA;" d="M230.305,409.129c0,2.017-1.741,3.663-3.875,3.663c-2.15,0-3.891-1.646-3.891-3.663
	c0-2.032,1.741-8.2,3.891-8.2C228.573,400.929,230.305,407.105,230.305,409.129z"/>
<path style="fill:#30B9D8;" d="M226.43,400.929c2.135,0,3.875,6.168,3.875,8.2c0,2.017-1.741,3.663-3.875,3.663"/>
<path style="fill:#5EE0EA;" d="M248.06,409.129c0,2.017-1.733,3.663-3.891,3.663c-2.135,0-3.875-1.646-3.875-3.663
	c0-2.032,1.749-8.2,3.875-8.2C246.327,400.929,248.06,407.105,248.06,409.129z"/>
<path style="fill:#30B9D8;" d="M244.169,400.929c2.158,0,3.891,6.168,3.891,8.2c0,2.017-1.733,3.663-3.891,3.663"/>
<path style="fill:#5EE0EA;" d="M265.83,409.129c0,2.017-1.741,3.663-3.891,3.663c-2.143,0-3.883-1.646-3.883-3.663
	c0-2.032,1.741-8.2,3.883-8.2C264.09,400.929,265.83,407.105,265.83,409.129z"/>
<path style="fill:#30B9D8;" d="M261.939,400.929c2.15,0,3.891,6.168,3.891,8.2c0,2.017-1.741,3.663-3.891,3.663"/>
<path style="fill:#5EE0EA;" d="M283.569,409.129c0,2.017-1.725,3.663-3.875,3.663c-2.135,0-3.875-1.646-3.875-3.663
	c0-2.032,1.741-8.2,3.875-8.2C281.844,400.929,283.569,407.105,283.569,409.129z"/>
<path style="fill:#30B9D8;" d="M279.694,400.929c2.15,0,3.875,6.168,3.875,8.2c0,2.017-1.725,3.663-3.875,3.663"/>
<path style="fill:#5EE0EA;" d="M301.34,409.129c0,2.017-1.741,3.663-3.891,3.663c-2.135,0-3.875-1.646-3.875-3.663
	c0-2.032,1.741-8.2,3.875-8.2C299.599,400.929,301.34,407.105,301.34,409.129z"/>
<path style="fill:#30B9D8;" d="M297.448,400.929c2.15,0,3.891,6.168,3.891,8.2c0,2.017-1.741,3.663-3.891,3.663"/>
<path style="fill:#5EE0EA;" d="M230.305,427.829c0,2.04-1.741,3.679-3.875,3.679c-2.15,0-3.891-1.638-3.891-3.679
	c0-2.024,1.741-8.192,3.891-8.192C228.573,419.637,230.305,425.813,230.305,427.829z"/>
<path style="fill:#30B9D8;" d="M226.43,419.637c2.135,0,3.875,6.168,3.875,8.192c0,2.04-1.741,3.679-3.875,3.679"/>
<path style="fill:#5EE0EA;" d="M248.06,427.829c0,2.04-1.733,3.679-3.891,3.679c-2.135,0-3.875-1.638-3.875-3.679
	c0-2.024,1.749-8.192,3.875-8.192C246.327,419.637,248.06,425.813,248.06,427.829z"/>
<path style="fill:#30B9D8;" d="M244.169,419.637c2.158,0,3.891,6.168,3.891,8.192c0,2.04-1.733,3.679-3.891,3.679"/>
<path style="fill:#5EE0EA;" d="M265.83,427.829c0,2.04-1.741,3.679-3.891,3.679c-2.143,0-3.883-1.638-3.883-3.679
	c0-2.024,1.741-8.192,3.883-8.192C264.09,419.637,265.83,425.813,265.83,427.829z"/>
<path style="fill:#30B9D8;" d="M261.939,419.637c2.15,0,3.891,6.168,3.891,8.192c0,2.04-1.741,3.679-3.891,3.679"/>
<path style="fill:#5EE0EA;" d="M283.569,427.829c0,2.04-1.725,3.679-3.875,3.679c-2.135,0-3.875-1.638-3.875-3.679
	c0-2.024,1.741-8.192,3.875-8.192C281.844,419.637,283.569,425.813,283.569,427.829z"/>
<path style="fill:#30B9D8;" d="M279.694,419.637c2.15,0,3.875,6.168,3.875,8.192c0,2.04-1.725,3.679-3.875,3.679"/>
<path style="fill:#5EE0EA;" d="M301.34,427.829c0,2.04-1.741,3.679-3.891,3.679c-2.135,0-3.875-1.638-3.875-3.679
	c0-2.024,1.741-8.192,3.875-8.192C299.599,419.637,301.34,425.813,301.34,427.829z"/>
<path style="fill:#30B9D8;" d="M297.448,419.637c2.15,0,3.891,6.168,3.891,8.192c0,2.04-1.741,3.679-3.891,3.679"/>
<circle style="fill:#FFCE00;" cx="222.381" cy="256.711" r="37.62"/>
<path style="fill:#FF9D00;" d="M222.381,219.083c20.764,0,37.612,16.849,37.612,37.636c0,20.771-16.857,37.62-37.612,37.62"/>
<path style="fill:#FFBC00;" d="M260.001,256.727c0,20.771-16.857,34.737-37.612,34.737c-20.787,0-37.62-13.966-37.62-34.737
	c0-20.795,16.841-34.761,37.62-34.761C243.145,221.966,260.001,235.932,260.001,256.727z"/>
<path style="fill:#FFB000;" d="M222.381,221.966c20.764,0,37.612,13.966,37.612,34.761c0,20.771-16.857,34.737-37.612,34.737
	c-20.787,0-37.62-13.966-37.62-34.737"/>
<path style="fill:#FFBC00;" d="M222.381,221.966c20.764,0,37.612,13.966,37.612,34.761c0,20.771-16.857,34.737-37.612,34.737"/>
<path style="fill:#FFCE00;" d="M260.001,256.727c0,20.771-16.857,34.737-37.612,34.737"/>
<circle style="fill:#FF9D00;" cx="222.381" cy="206.811" r="2.812"/>
<polygon style="fill:#FFCE00;" points="225.729,197.579 222.381,198.634 219.034,197.579 222.381,191.049 "/>
<circle style="fill:#FF9D00;" cx="222.381" cy="306.651" r="2.812"/>
<polygon style="fill:#FFCE00;" points="219.034,315.859 222.381,314.78 225.705,315.859 222.381,322.381 "/>
<circle style="fill:#FF9D00;" cx="257.654" cy="221.422" r="2.812"/>
<polygon style="fill:#FFCE00;" points="266.571,217.255 263.444,215.656 261.829,212.513 268.824,210.276 "/>
<path style="fill:#FF9D00;" d="M185.092,290.007c1.111-1.103,2.883-1.103,3.97,0c1.126,1.111,1.126,2.875,0,3.986
	c-1.087,1.111-2.859,1.111-3.97,0C183.997,292.89,183.997,291.117,185.092,290.007z"/>
<polygon style="fill:#FFCE00;" points="178.2,296.166 181.327,297.765 182.91,300.893 175.939,303.145 "/>
<circle style="fill:#FF9D00;" cx="272.305" cy="256.711" r="2.812"/>
<polygon style="fill:#FFCE00;" points="281.537,260.059 280.442,256.727 281.537,253.379 288.043,256.727 "/>
<circle style="fill:#FF9D00;" cx="172.473" cy="256.711" r="2.812"/>
<polygon style="fill:#FFCE00;" points="163.249,253.363 164.305,256.727 163.249,260.059 156.704,256.727 "/>
<circle style="fill:#FF9D00;" cx="257.654" cy="292" r="2.82"/>
<polygon style="fill:#FFCE00;" points="261.829,300.893 263.444,297.765 266.555,296.166 268.824,303.145 "/>
<path style="fill:#FF9D00;" d="M189.062,219.437c1.126,1.095,1.126,2.875,0,3.97c-1.087,1.103-2.859,1.103-3.97,0
	c-1.095-1.095-1.095-2.875,0-3.97C186.203,218.342,187.975,218.342,189.062,219.437z"/>
<g>
	<polygon style="fill:#FFCE00;" points="182.942,212.513 181.327,215.656 178.2,217.255 175.939,210.276 	"/>
	<circle style="fill:#FFCE00;" cx="241.9" cy="210.788" r="2.812"/>
</g>
<polygon style="fill:#FF9D00;" points="248.588,203.597 245.075,203.274 242.428,200.982 248.06,196.279 "/>
<path style="fill:#FFCE00;" d="M200.279,301.538c0.614-1.441,2.245-2.087,3.694-1.481c1.426,0.599,2.095,2.245,1.489,3.694
	c-0.614,1.441-2.269,2.103-3.71,1.481C200.326,304.65,199.664,302.98,200.279,301.538z"/>
<polygon style="fill:#FF9D00;" points="196.151,309.825 199.68,310.156 202.342,312.448 196.695,317.151 "/>
<circle style="fill:#FFCE00;" cx="268.658" cy="238.035" r="2.812"/>
<polygon style="fill:#FF9D00;" points="278.481,237.68 276.228,234.978 275.968,231.473 283.278,232.135 "/>
<circle style="fill:#FFCE00;" cx="176.096" cy="275.387" r="2.812"/>
<polygon style="fill:#FF9D00;" points="166.29,275.734 168.535,278.435 168.802,281.949 161.493,281.287 "/>
<circle style="fill:#FFCE00;" cx="268.304" cy="276.222" r="2.804"/>
<polygon style="fill:#FF9D00;" points="275.503,282.933 275.818,279.428 278.118,276.766 282.829,282.405 "/>
<circle style="fill:#FFCE00;" cx="176.443" cy="237.184" r="2.812"/>
<polygon style="fill:#FF9D00;" points="169.259,230.504 168.936,234.002 166.644,236.656 161.95,231.04 "/>
<path style="fill:#FFCE00;" d="M238.442,304.059c-0.583-1.457,0.11-3.08,1.56-3.678c1.441-0.575,3.088,0.126,3.655,1.552
	c0.599,1.449-0.11,3.096-1.552,3.686C240.664,306.194,239.033,305.485,238.442,304.059z"/>
<polygon style="fill:#FF9D00;" points="241.404,312.81 244.106,310.558 247.611,310.305 246.957,317.607 "/>
<circle style="fill:#FFCE00;" cx="203.697" cy="210.395" r="2.82"/>
<polygon style="fill:#FF9D00;" points="203.351,200.627 200.649,202.88 197.136,203.132 197.797,195.814 "/>
<path style="fill:#DCF9F6;" d="M335.967,304.807c0-26.419-21.402-47.813-47.797-47.813c-18.684,0-34.816,10.72-42.677,26.348
	c-1.749-0.425-3.568-0.685-5.427-0.685c-12.524,0-22.662,10.138-22.662,22.662c0,0.512,0.047,1.016,0.079,1.52
	c-16.463,1.709-25.348,16.077-25.348,33.54v2.245c0,18.613,15.092,33.705,33.713,33.705h76.398
	c18.629,0,33.721-15.092,33.721-33.705V331.92C336.415,323.255,335.967,313.748,335.967,304.807z"/>
<path style="fill:#BDE5E1;" d="M335.967,311.203c0-26.411-21.402-47.805-47.797-47.805c-18.684,0-34.816,10.713-42.677,26.34
	c-1.749-0.425-3.568-0.677-5.427-0.677c-12.524,0-22.662,10.138-22.662,22.654c0,0.512,0.047,1.024,0.079,1.52
	c-16.463,1.717-25.348,9.681-25.348,27.144v2.245c0,18.613,15.092,33.705,33.713,33.705h76.398
	c18.629,0,33.721-15.092,33.721-33.705V331.92C336.415,323.255,335.967,320.144,335.967,311.203z"/>
<path style="fill:#B1DDD9;" d="M225.847,376.33h76.398c18.629,0,33.721-15.092,33.721-33.705V331.92c0.449-8.665,0-11.776,0-20.716"
	/>
<g>
	<path style="fill:#DCF9F6;" d="M267.445,311.849c-1.434-0.41-2.922-0.717-4.466-0.717c-8.838,0-16.006,7.16-16.006,15.998
		c0,1.552,0.307,3.033,0.725,4.458C248.942,321.262,257.118,313.086,267.445,311.849z"/>
	<path style="fill:#DCF9F6;" d="M295.172,297.135c-1.804-0.906-3.726-1.67-5.829-2.048c-11.91-2.174-23.308,5.727-25.474,17.613
		c-0.386,2.119-0.354,4.167-0.142,6.207C267.934,305.311,280.954,296.269,295.172,297.135z"/>
</g>
<g>
	<circle style="fill:#B1DDD9;" cx="208.345" cy="337.922" r="1.591"/>
	<circle style="fill:#B1DDD9;" cx="212.551" cy="325.721" r="2.198"/>
	<circle style="fill:#B1DDD9;" cx="240.12" cy="302.933" r="1"/>
</g>
<g>
	<circle style="fill:#DCF9F6;" cx="262.302" cy="290.747" r="2.395"/>
	<circle style="fill:#DCF9F6;" cx="281.127" cy="271.173" r="1.197"/>
	<path style="fill:#DCF9F6;" d="M295.479,274.773c0,1.977-1.599,3.576-3.6,3.576c-1.985,0-3.6-1.599-3.6-3.576
		c0-2.009,1.615-3.6,3.6-3.6C293.88,271.173,295.479,272.764,295.479,274.773z"/>
</g>
</svg>